<svg width="145" height="126" viewBox="0 0 145 126" fill="none" xmlns="http://www.w3.org/2000/svg">
<g clip-path="url(#clip0_9_16)">
<path opacity="0.1" d="M144.557 80.5716C144.559 83.9456 144.268 87.3074 143.689 90.5825C143.494 91.6849 143.268 92.7655 143.01 93.8244C142.695 95.1297 142.329 96.4104 141.916 97.661C141.707 98.2924 141.486 98.9123 141.254 99.5208C141.258 102.981 140.749 106.404 139.76 109.575C137.972 115.263 134.785 119.862 130.779 122.535C128.271 124.211 125.53 125.091 122.751 125.114H27.4415C23.2006 125.127 19.0329 123.567 15.3621 120.593C14.8196 120.153 14.2911 119.684 13.7764 119.187C12.6589 118.106 11.6091 116.893 10.6381 115.563C9.32365 113.763 8.16562 111.751 7.18811 109.57C4.89152 104.462 3.67491 98.5485 3.67918 92.5128C1.35339 86.7975 -0.00280762 79.9511 -0.00280762 72.5942C-0.00280762 63.3121 2.15238 54.8448 5.69322 48.435C6.43142 47.0958 7.24002 45.8358 8.11228 44.6654C8.97293 43.5073 9.89798 42.4468 10.8787 41.494C11.663 40.7303 12.4831 40.0412 13.3333 39.4314C13.688 39.177 14.044 38.9398 14.406 38.718C14.7239 38.5203 15.0455 38.3364 15.3707 38.1628C15.761 37.9543 16.1562 37.7635 16.5563 37.5904C16.9564 37.4174 17.3512 37.265 17.7407 37.1332C18.3134 36.9372 18.896 36.7779 19.4884 36.6553C19.9793 36.5539 20.4702 36.4834 20.9612 36.4284C21.3515 36.3895 21.745 36.3666 22.1419 36.3597H22.3567C22.7936 36.3597 23.2281 36.3837 23.6588 36.425C23.7043 36.2978 23.7533 36.1689 23.7988 36.0417C23.9706 35.5845 24.1486 35.1272 24.3277 34.6786V34.6666C24.3584 34.5892 24.3891 34.5119 24.421 34.4362C24.5658 34.0701 24.7168 33.7074 24.8714 33.3482C24.9426 33.1763 25.0126 33.0147 25.085 32.8514C25.101 32.8119 25.1169 32.774 25.1353 32.7345C25.209 32.5626 25.2838 32.3907 25.3599 32.2188C25.7388 31.372 26.1327 30.5383 26.5418 29.7178C26.5774 29.6474 26.6106 29.5786 26.6462 29.5098C26.71 29.3826 26.7689 29.2572 26.8401 29.1317C27.0095 28.7999 27.1837 28.4665 27.3592 28.1382C27.482 27.9061 27.6047 27.6741 27.7373 27.4506C28.0564 26.873 28.3841 26.2989 28.7191 25.7317C29.0542 25.1645 29.4077 24.5938 29.7648 24.0351C29.8139 23.9578 29.863 23.8822 29.9145 23.8048L30.4386 23.0055C30.4644 22.9677 30.4865 22.9333 30.511 22.8989C30.5736 22.8044 30.6337 22.7099 30.7013 22.617C30.9823 22.2011 31.2707 21.7902 31.5604 21.3846C33.0399 19.3257 34.616 17.4077 36.2782 15.6434C36.3433 15.5713 36.4096 15.5025 36.4746 15.4337C36.7863 15.1037 37.103 14.7788 37.4196 14.4591C39.1616 12.7098 40.9823 11.1194 42.8702 9.69776C43.0003 9.59462 43.1329 9.49664 43.2666 9.39867C44.9597 8.14511 46.7006 7.02269 48.4816 6.03649C49.452 5.49905 50.4395 4.99713 51.4443 4.53073C52.1095 4.22648 52.7772 3.93599 53.4535 3.67128C54.4991 3.25072 55.5579 2.87142 56.6298 2.53336C59.7876 1.54102 63.0001 0.928005 66.2324 0.701012C67.2143 0.628818 68.2072 0.592721 69.2111 0.592721C74.0554 0.583739 78.8808 1.4386 83.5709 3.1367C83.6193 3.23933 83.6857 3.323 83.7636 3.37984C83.8416 3.43667 83.9285 3.4648 84.0164 3.46157H84.4288C84.6079 3.52861 84.7859 3.59908 84.9651 3.67128C85.9658 4.07579 86.9521 4.51641 87.9242 4.99312L88.1697 5.11688C90.5688 6.31166 92.9031 7.74782 95.1544 9.41414C97.1835 10.9132 99.1374 12.604 101.003 14.4746C101.29 14.7634 101.573 15.055 101.852 15.3495C102.191 15.0435 102.535 14.7519 102.885 14.4746C104.238 13.3964 105.674 12.5394 107.166 11.9203C110.286 10.6274 113.587 10.4466 116.769 11.3943C120.85 12.6061 124.544 15.6142 127.528 19.8926C128.743 21.6374 129.826 23.5546 130.758 25.6131C130.825 25.7609 130.893 25.9105 130.958 26.0617C131.758 27.8898 132.445 29.8099 133.013 31.8011C133.033 31.8733 133.054 31.9438 133.073 32.016C133.597 33.8795 134.019 35.7958 134.337 37.7486C134.352 37.8465 134.369 37.9462 134.383 38.0459C134.681 39.9357 134.882 41.8525 134.987 43.7819C134.987 43.8507 134.987 43.9211 134.997 43.9916C135.049 44.9897 135.075 45.9987 135.076 47.0186C135.076 47.9296 135.054 48.8338 135.013 49.7293C135.013 49.8273 135.003 49.9304 134.997 50.0301C134.986 50.2914 134.97 50.5458 134.954 50.8088C135.892 51.8671 136.769 53.0257 137.578 54.2741C137.936 54.8207 138.282 55.3885 138.617 55.9775C139.636 57.7665 140.532 59.6871 141.292 61.7135C143.364 67.2106 144.557 73.6633 144.557 80.5716Z" fill="#6C63FF"/>
<path opacity="0.1" d="M130.688 114.404C130.688 118.311 127.797 121.968 122.751 125.117H27.4419C23.0321 125.117 18.9021 122.882 15.3625 118.985C14.4727 117.507 14.0038 115.975 14.0038 114.403C14.0038 110.25 17.2734 106.374 22.9265 103.097L23.0861 103.008C24.6816 102.092 26.4649 101.227 28.4139 100.414C28.463 100.394 28.5133 100.375 28.5624 100.351C30.1088 99.7147 31.7539 99.1119 33.4975 98.5424C33.5527 98.5252 33.6067 98.5063 33.662 98.4925C34.3345 98.2691 35.0206 98.0611 35.7214 97.8531L35.9914 97.774C41.091 96.2923 46.8876 95.1166 53.174 94.319H53.1814C54.0618 94.2044 54.9516 94.1019 55.8508 94.0113C56.8511 93.8996 57.8636 93.8051 58.8872 93.7174C59.669 93.6469 60.4607 93.5868 61.2547 93.5318C61.2577 93.53 61.2608 93.5291 61.264 93.5291C61.2671 93.5291 61.2702 93.53 61.2732 93.5318C64.8557 93.2791 68.5573 93.1467 72.3424 93.1467C81.702 93.1467 90.5486 93.9512 98.3876 95.3813C98.3949 95.3795 98.4023 95.3795 98.4096 95.3813C99.6149 95.6013 100.798 95.8334 101.952 96.0809C102.282 96.1531 102.611 96.2253 102.934 96.2992C104.235 96.5937 105.504 96.9048 106.738 97.2326C121.258 101.098 130.688 107.353 130.688 114.404Z" fill="#6C63FF"/>
<path d="M106.962 42.4064C106.962 42.4064 105.663 41.669 101.532 44.3213C97.4008 46.9735 96.8853 46.6384 95.8163 46.2396C94.7473 45.8408 94.1508 45.7376 93.0045 43.522C93.0045 43.522 92.1957 37.3838 91.409 36.4315C90.6222 35.4792 87.3011 36.9747 87.3011 36.9747C87.3011 36.9747 83.3135 38.2553 82.5538 30.7866C82.5538 30.7866 83.0926 25.1624 82.3586 23.4366C82.3586 23.4366 83.8413 24.3304 86.2861 22.8865C88.7309 21.4427 90.6885 24.4421 90.6885 24.4421C90.6885 24.4421 91.3022 26.6767 91.2408 28.0106C91.1794 29.3445 91.5673 29.8447 92.7332 29.2001C92.7332 29.2001 93.3064 28.0587 92.4951 26.1714C91.6839 24.284 91.1046 22.8797 91.3304 21.4152C91.5562 19.9506 92.2079 17.9172 94.3005 16.9013C96.3931 15.8854 99.2344 15.6981 100.598 14.8953C101.962 14.0926 102.298 13.5804 102.298 13.5804C102.298 13.5804 101.458 14.7578 103.436 19.7512C105.413 24.7447 104.152 26.9105 104.152 26.9105C104.152 26.9105 103.1 30.4222 98.4563 30.1369C98.4563 30.1369 93.9814 30.3655 96.4214 33.0229C96.4214 33.0229 97.9837 32.5777 100.319 31.5378C102.655 30.4978 104.341 34.7899 104.76 37.7757C105.178 40.7614 106.962 42.4064 106.962 42.4064Z" fill="#6C63FF"/>
<path d="M100.947 17.362L100.971 17.3517C101.15 18.304 99.1509 22.1337 97.4413 25.1779L97.4216 25.1555C99.8321 20.8686 101.085 18.0994 100.947 17.362Z" fill="#444053"/>
<path d="M97.456 25.097L97.467 25.1349C96.101 27.5654 94.384 30.4635 93.0094 32.6173C92.8781 32.8218 92.748 33.0367 92.6228 33.2567L92.5835 33.212C92.7062 32.992 92.84 32.7754 92.9713 32.5708C94.3447 30.4257 96.0887 27.5293 97.456 25.097Z" fill="#444053"/>
<path d="M92.6166 33.157L92.6436 33.2223C90.1423 37.5969 89.9766 44.3952 89.9705 44.4485L89.4427 43.589C89.4489 43.534 90.0981 37.5626 92.6166 33.157Z" fill="#444053"/>
<path d="M104.066 40.0343C104.066 40.0343 101.121 37.8857 98.8183 38.6592C96.5158 39.4327 91.3377 35.9262 91.3377 35.9262C91.3377 35.9262 89.1408 34.6765 88.699 33.2515C88.699 33.2515 87.1906 31.017 87.1035 29.8636C87.0163 28.7102 85.5497 25.8035 84.5923 25.6918" stroke="#444053" stroke-width="0.865612" stroke-miterlimit="10"/>
<path d="M103.633 42.1022C103.633 42.1022 102.148 40.6995 102.321 39.0666" stroke="#444053" stroke-width="0.865612" stroke-miterlimit="10"/>
<path d="M101.355 43.9122C101.355 43.9122 99.2307 42.8327 99.0233 38.5973" stroke="#444053" stroke-width="0.865612" stroke-miterlimit="10"/>
<path d="M97.9298 45.0089C97.9298 45.0089 95.8998 42.6505 96.5736 38.5286" stroke="#444053" stroke-width="0.865612" stroke-miterlimit="10"/>
<path d="M93.8072 43.8572C93.8072 43.8572 92.4571 39.8865 93.6587 37.303" stroke="#444053" stroke-width="0.865612" stroke-miterlimit="10"/>
<path d="M104.095 37.4165C104.095 37.4165 102.559 38.104 102.888 39.2316" stroke="#444053" stroke-width="0.865612" stroke-miterlimit="10"/>
<path d="M102.241 33.5197C102.241 33.5197 100.186 34.4324 100.138 38.5045" stroke="#444053" stroke-width="0.865612" stroke-miterlimit="10"/>
<path d="M99.3743 32.5708C99.3743 32.5708 97.5026 35.8058 97.6401 38.7451" stroke="#444053" stroke-width="0.865612" stroke-miterlimit="10"/>
<path d="M96.0974 33.8394C96.0974 33.8394 94.2392 36.3284 94.4761 37.7121" stroke="#444053" stroke-width="0.865612" stroke-miterlimit="10"/>
<path d="M94.9768 32.961C94.9768 32.961 93.234 33.3976 92.9897 32.5966" stroke="#444053" stroke-width="0.865612" stroke-miterlimit="10"/>
<path d="M92.7123 30.0148C92.7123 30.0148 93.5923 31.6478 93.8169 31.2817" stroke="#444053" stroke-width="0.865612" stroke-miterlimit="10"/>
<path d="M101.441 28.9818C101.441 28.9818 97.0473 29.4287 96.0532 27.5723" stroke="#444053" stroke-width="0.865612" stroke-miterlimit="10"/>
<path d="M91.7931 21.7847C91.7931 21.7847 93.8538 27.9814 95.3523 28.7704" stroke="#444053" stroke-width="0.865612" stroke-miterlimit="10"/>
<path d="M93.9507 18.8334C93.9507 18.8334 95.2161 24.5333 96.7846 26.3123" stroke="#444053" stroke-width="0.865612" stroke-miterlimit="10"/>
<path d="M103.289 24.2771C103.289 24.2771 99.9487 26.2848 97.9432 24.2531" stroke="#444053" stroke-width="0.649209" stroke-miterlimit="10"/>
<path d="M96.9258 17.6181C96.9258 17.6181 97.6892 21.807 98.7177 22.8195" stroke="#444053" stroke-width="0.649209" stroke-miterlimit="10"/>
<path d="M102.785 19.5828C102.785 19.5828 100.907 20.5798 100.208 19.8166" stroke="#444053" stroke-width="0.649209" stroke-miterlimit="10"/>
<path d="M91.1033 31.3831C91.1033 31.3831 91.1033 35.0358 90.3939 35.2953" stroke="#444053" stroke-width="0.865612" stroke-miterlimit="10"/>
<path d="M85.2993 36.1152C85.2993 36.1152 88.1222 36.459 89.4194 34.4152" stroke="#444053" stroke-width="0.865612" stroke-miterlimit="10"/>
<path d="M90.3768 27.0686C90.3768 27.0686 89.6944 30.7729 87.8116 31.7716" stroke="#444053" stroke-width="0.865612" stroke-miterlimit="10"/>
<path d="M83.608 32.2133C83.608 32.2133 85.6037 33.1845 87.3207 30.711" stroke="#444053" stroke-width="0.865612" stroke-miterlimit="10"/>
<path d="M88.1565 23.8835C88.1565 23.8835 87.9687 27.0291 86.7476 28.5022" stroke="#444053" stroke-width="0.865612" stroke-miterlimit="10"/>
<path d="M83.6841 27.4193C83.6841 27.4193 85.3398 27.4348 85.7276 26.6784" stroke="#444053" stroke-width="0.865612" stroke-miterlimit="10"/>
<path d="M95.6592 39.364H48.5052V72.7004H95.6592V39.364Z" fill="#33323D"/>
<path d="M110.498 82.8282H33.8166V104.772H110.498V82.8282Z" fill="#33323D"/>
<path d="M52.121 88.3132H91.4409L99.2749 125.237H43.8353L52.121 88.3132Z" fill="white"/>
<path d="M31.632 69.7456V81.1402V83.5398V104.77H46.3206V84.5161H97.9936V104.77H112.682V83.5398V81.1402V69.7456H31.632Z" fill="#504F60"/>
<path opacity="0.1" d="M112.682 69.7456H31.632V81.1385H112.682V69.7456Z" fill="#33323D"/>
<path opacity="0.8" d="M108.314 77.1317C108.98 77.1317 109.519 76.376 109.519 75.4438C109.519 74.5115 108.98 73.7558 108.314 73.7558C107.649 73.7558 107.109 74.5115 107.109 75.4438C107.109 76.376 107.649 77.1317 108.314 77.1317Z" fill="#8CCF4D"/>
<path opacity="0.8" d="M102.891 77.1317C103.556 77.1317 104.096 76.376 104.096 75.4438C104.096 74.5115 103.556 73.7558 102.891 73.7558C102.225 73.7558 101.685 74.5115 101.685 75.4438C101.685 76.376 102.225 77.1317 102.891 77.1317Z" fill="#FA5959"/>
<path d="M93.9274 31.3453H50.2382V67.6348H93.9274V31.3453Z" fill="white"/>
<path d="M100.573 84.3116C100.665 85.7159 99.9082 87.079 100.129 88.4542C100.176 88.7481 100.267 89.0265 100.3 89.3136C100.391 90.1301 100.043 90.9036 99.7106 91.5877L96.8595 97.4629C96.7452 97.7207 96.6083 97.9574 96.452 98.1677C95.9059 98.8552 95.0885 98.7762 94.373 98.979C93.8699 99.1219 93.3947 99.415 92.9799 99.8385C92.9619 99.8585 92.9499 99.8874 92.9465 99.9193C92.9431 99.9512 92.9485 99.9838 92.9615 100.01C93.0795 100.237 93.2361 100.419 93.417 100.539C93.5979 100.659 93.7975 100.714 93.9974 100.698C94.0723 100.835 93.9974 101.042 93.8943 101.138C93.7409 101.286 93.5261 101.325 93.5003 101.69C93.4895 101.816 93.5076 101.944 93.5519 102.056C93.6672 102.302 93.8463 102.476 94.0514 102.541C95.0333 102.963 96.1047 102.221 96.8436 101.21C97.5824 100.199 98.1126 98.924 98.838 97.8944C99.2393 97.3254 99.6971 96.8373 100.109 96.2855C100.934 95.1854 101.582 93.8464 102.196 92.5039C102.399 92.1146 102.551 91.679 102.648 91.2164C102.724 90.7592 102.689 90.2762 102.778 89.8224C102.893 89.2294 103.204 88.7567 103.461 88.2582C103.968 87.2819 104.306 86.0889 104.238 84.8857C104.171 83.6825 103.641 82.4981 102.83 82.089C102.579 81.949 102.303 81.9255 102.041 82.022C101.709 82.1647 101.464 82.5497 101.237 82.9176L100.696 83.7925C100.561 83.9862 100.454 84.2143 100.381 84.4646C100.346 84.5907 100.338 84.7283 100.358 84.8607C100.377 84.9932 100.424 85.1147 100.492 85.2106" fill="#FBBEBE"/>
<path opacity="0.05" d="M100.573 84.3116C100.665 85.7159 99.9082 87.079 100.129 88.4542C100.176 88.7481 100.267 89.0265 100.3 89.3136C100.391 90.1301 100.043 90.9036 99.7106 91.5877L96.8595 97.4629C96.7452 97.7207 96.6083 97.9574 96.452 98.1677C95.9059 98.8552 95.0885 98.7762 94.373 98.979C93.8699 99.1219 93.3947 99.415 92.9799 99.8385C92.9619 99.8585 92.9499 99.8874 92.9465 99.9193C92.9431 99.9512 92.9485 99.9838 92.9615 100.01C93.0795 100.237 93.2361 100.419 93.417 100.539C93.5979 100.659 93.7975 100.714 93.9974 100.698C94.0723 100.835 93.9974 101.042 93.8943 101.138C93.7409 101.286 93.5261 101.325 93.5003 101.69C93.4895 101.816 93.5076 101.944 93.5519 102.056C93.6672 102.302 93.8463 102.476 94.0514 102.541C95.0333 102.963 96.1047 102.221 96.8436 101.21C97.5824 100.199 98.1126 98.924 98.838 97.8944C99.2393 97.3254 99.6971 96.8373 100.109 96.2855C100.934 95.1854 101.582 93.8464 102.196 92.5039C102.399 92.1146 102.551 91.679 102.648 91.2164C102.724 90.7592 102.689 90.2762 102.778 89.8224C102.893 89.2294 103.204 88.7567 103.461 88.2582C103.968 87.2819 104.306 86.0889 104.238 84.8857C104.171 83.6825 103.641 82.4981 102.83 82.089C102.579 81.949 102.303 81.9255 102.041 82.022C101.709 82.1647 101.464 82.5497 101.237 82.9176L100.696 83.7925C100.561 83.9862 100.454 84.2143 100.381 84.4646C100.346 84.5907 100.338 84.7283 100.358 84.8607C100.377 84.9932 100.424 85.1147 100.492 85.2106" fill="black"/>
<path d="M102.732 120.458C102.109 120.99 101.333 121.024 100.609 120.899C100.486 120.88 100.355 120.868 100.28 120.993C100.172 121.177 100.3 121.445 100.431 121.593C100.859 122.041 101.361 122.331 101.89 122.433C102.363 122.526 102.839 122.57 103.316 122.566C104.617 122.597 105.926 122.628 107.214 122.365C107.289 122.357 107.361 122.327 107.427 122.277C107.51 122.196 107.568 122.073 107.588 121.933C107.677 121.466 107.507 120.96 107.25 120.636C106.994 120.311 106.663 120.128 106.341 119.948L105.209 119.331C104.943 119.185 104.517 118.801 104.227 118.831C103.698 118.891 103.181 120.091 102.732 120.458Z" fill="#3F3D56"/>
<path opacity="0.05" d="M102.732 120.458C102.109 120.99 101.333 121.024 100.609 120.899C100.486 120.88 100.355 120.868 100.28 120.993C100.172 121.177 100.3 121.445 100.431 121.593C100.859 122.041 101.361 122.331 101.89 122.433C102.363 122.526 102.839 122.57 103.316 122.566C104.617 122.597 105.926 122.628 107.214 122.365C107.289 122.357 107.361 122.327 107.427 122.277C107.51 122.196 107.568 122.073 107.588 121.933C107.677 121.466 107.507 120.96 107.25 120.636C106.994 120.311 106.663 120.128 106.341 119.948L105.209 119.331C104.943 119.185 104.517 118.801 104.227 118.831C103.698 118.891 103.181 120.091 102.732 120.458Z" fill="black"/>
<path d="M103.521 99.4104C103.051 100.289 102.563 101.301 102.68 102.389C102.742 102.975 102.977 103.493 103.148 104.034C103.363 104.779 103.523 105.553 103.623 106.344C103.8 107.494 103.977 108.648 104.085 109.815C104.208 111.133 103.631 114.948 103.577 116.276C103.563 116.596 103.537 116.943 103.378 117.174C103.315 117.265 103.232 117.345 103.205 117.457C103.188 117.571 103.201 117.69 103.242 117.791C103.508 118.631 104.052 119.255 104.655 119.613C105.259 119.97 106.728 120.584 107.384 120.617C107.471 120.631 107.559 120.615 107.64 120.568C107.729 120.494 107.798 120.383 107.839 120.25C108.313 118.984 107.858 114.473 107.865 113.041C107.865 111.838 108.072 110.662 108.036 109.469C108.005 108.512 107.822 107.579 107.756 106.623C107.646 105.057 107.851 103.486 108.058 101.939C108.215 100.755 108.372 99.5686 108.573 98.3963C108.696 97.6829 108.838 96.961 109.119 96.3336C109.341 95.8403 109.643 95.4295 109.897 94.9585C110.602 93.6658 110.914 92.0369 110.768 90.424C110.753 90.2659 109.133 90.9998 108.992 91.0858C108.41 91.432 107.875 91.9145 107.41 92.5125C107.041 93.011 106.741 93.6796 106.412 94.24C105.948 95.0307 105.49 95.8277 105.038 96.631C104.525 97.5534 104.02 98.4799 103.521 99.4104Z" fill="#464353"/>
<path opacity="0.05" d="M103.521 99.3537C103.051 100.232 102.563 101.245 102.68 102.334C102.742 102.919 102.977 103.436 103.148 103.978C103.363 104.723 103.522 105.497 103.623 106.288C103.8 107.438 103.977 108.591 104.085 109.758C104.208 111.077 103.631 114.893 103.577 116.221C103.563 116.539 103.537 116.888 103.378 117.117C103.315 117.208 103.232 117.289 103.205 117.401C103.186 117.518 103.199 117.64 103.242 117.744C103.508 118.583 104.052 119.209 104.655 119.565C105.259 119.92 106.728 120.252 107.384 120.281C107.471 120.296 107.559 120.28 107.64 120.233C107.729 120.159 107.798 120.048 107.839 119.915C108.313 118.648 107.858 114.425 107.865 112.995C107.865 111.792 108.072 110.614 108.036 109.421C108.005 108.464 107.822 107.531 107.756 106.575C107.646 105.009 107.851 103.438 108.058 101.893C108.215 100.707 108.372 99.5205 108.573 98.3482C108.696 97.6348 108.838 96.9129 109.119 96.2855C109.341 95.7939 109.643 95.3814 109.897 94.9207C110.601 93.6274 110.913 91.999 110.768 90.3862C110.753 90.2264 109.133 90.9603 108.992 91.048C108.41 91.3945 107.875 91.8783 107.41 92.4781C107.041 92.9783 106.741 93.6453 106.412 94.197C105.948 94.9877 105.49 95.7853 105.038 96.5897C104.525 97.5065 104.02 98.4278 103.521 99.3537Z" fill="black"/>
<path d="M98.282 80.071C99.7413 80.071 100.924 78.4141 100.924 76.3702C100.924 74.3263 99.7413 72.6694 98.282 72.6694C96.8226 72.6694 95.6395 74.3263 95.6395 76.3702C95.6395 78.4141 96.8226 80.071 98.282 80.071Z" fill="#FBBEBE"/>
<path d="M100.661 76.2155C100.905 76.7613 101.225 77.2328 101.601 77.6019C101.978 77.971 102.404 78.2302 102.854 78.3641L102.655 79.3731C102.311 81.1144 101.919 82.9553 100.965 84.162C101.069 83.5724 100.934 82.9381 100.696 82.4311C100.442 81.9378 100.14 81.4959 99.799 81.1178L98.2783 79.2648C98.233 79.218 98.1943 79.1597 98.1642 79.093C98.1274 78.9626 98.1274 78.8176 98.1642 78.6873C98.3581 77.8433 98.9116 77.3122 99.3596 76.7449C99.5849 76.4493 99.7866 76.1202 99.961 75.7634C100.273 75.1567 100.461 75.7634 100.661 76.2155Z" fill="#FBBEBE"/>
<path d="M94.8 72.6506L94.7411 71.963C95.1584 72.1143 95.5536 71.6192 95.82 71.1035C96.0863 70.5879 96.3342 69.9828 96.7404 69.7697C97.2314 69.5084 97.7567 69.9261 98.228 70.2699C98.7563 70.6817 99.3364 70.9472 99.9364 71.052C100.032 71.0565 100.127 71.0785 100.219 71.1173C100.526 71.2703 100.672 71.8049 100.716 72.2982C100.76 72.7915 100.748 73.3072 100.9 73.7438C101.014 74.0738 101.212 74.3196 101.332 74.6445C101.655 75.5211 101.343 76.7175 101.684 77.5769L100.837 76.4889C100.759 76.3892 100.649 76.286 100.565 76.3703C100.48 76.4545 100.492 76.5817 100.464 76.6969C100.382 77.0406 100.081 77.1369 99.8615 77.0045C99.6419 76.8722 99.4835 76.58 99.3227 76.317C98.9484 75.6982 98.5029 75.155 97.9727 74.8903C97.7432 74.7671 97.4976 74.7139 97.2523 74.7343C97.007 74.7548 96.7676 74.8484 96.5502 75.0089C96.155 75.3217 95.8654 76.0506 95.3818 76.0763C94.7178 76.1107 94.4417 74.3798 94.1336 73.6957C94.2458 73.5768 94.3246 73.4066 94.3565 73.2147C94.3883 73.0228 94.3711 72.8214 94.3079 72.6454C94.3619 72.6162 94.7915 72.5388 94.8 72.6506Z" fill="#464353"/>
<path d="M105.814 120.429C105.292 121.081 104.614 121.435 103.914 121.421C103.736 121.421 103.49 121.469 103.488 121.718C103.491 121.793 103.509 121.864 103.54 121.925C103.761 122.44 104.111 122.823 104.522 123.001C104.902 123.162 105.31 123.135 105.707 123.107L106.867 123.023C107.086 123.006 107.305 122.99 107.524 122.953C107.742 122.915 107.978 122.851 108.206 122.805C108.765 122.693 109.331 122.655 109.895 122.693C110.045 122.702 110.218 122.693 110.311 122.535C110.404 122.377 110.354 122.091 110.32 121.863C110.251 121.392 110.32 120.898 110.256 120.426C110.144 119.596 109.635 118.961 109.073 118.66C108.551 118.382 107.626 118.064 107.131 118.526C106.601 119.025 106.282 119.836 105.814 120.429Z" fill="#3F3D56"/>
<path d="M106.963 92.6501C107.066 93.3376 107.536 93.8533 107.551 94.5409C107.562 95.0978 107.277 95.5722 107.073 96.0449C106.879 96.5401 106.714 97.0577 106.582 97.5919C106.195 98.9786 105.715 100.311 105.149 101.571C104.876 102.175 104.572 102.831 104.635 103.541C104.677 103.872 104.76 104.191 104.88 104.483L105.696 106.754C105.876 107.207 106.016 107.689 106.114 108.189C106.184 108.62 106.191 109.067 106.236 109.507C106.365 110.9 106.832 112.302 106.557 113.652C106.532 113.769 106.446 113.909 106.381 113.824C106.65 114.528 106.872 115.24 106.846 116.039C106.835 116.459 106.743 116.899 106.855 117.287C106.918 117.438 106.96 117.605 106.978 117.779C106.978 117.892 106.94 118 106.931 118.123C106.909 118.444 107.119 118.712 107.338 118.81C107.558 118.908 107.795 118.905 108.016 118.997C108.442 119.169 108.744 119.685 109.108 120.043C109.477 120.401 109.913 120.6 110.363 120.615C110.426 120.624 110.49 120.606 110.547 120.563C110.579 120.524 110.605 120.476 110.622 120.422C110.64 120.367 110.65 120.308 110.65 120.249C110.669 119.964 110.639 119.677 110.56 119.413C110.482 119.149 110.358 118.916 110.201 118.734C110.132 118.673 110.075 118.589 110.035 118.49C110.014 118.402 110.009 118.309 110.019 118.217C110.085 116.967 110.069 115.712 109.971 114.466C109.927 114.072 109.912 113.672 109.928 113.273C109.953 112.942 110.024 112.612 109.997 112.28C109.97 111.948 109.851 111.649 109.78 111.329C109.657 110.762 109.689 110.154 109.675 109.559C109.653 108.528 109.485 107.517 109.317 106.513C109.252 106.119 109.178 105.705 108.978 105.413C108.809 105.165 108.535 104.926 108.599 104.596C108.634 104.474 108.686 104.364 108.754 104.272C108.833 104.133 108.891 103.973 108.924 103.802C108.958 103.631 108.966 103.452 108.949 103.276C109.02 103.303 109.097 103.294 109.164 103.25C109.231 103.206 109.285 103.13 109.317 103.036C110.644 102.161 111.716 100.407 112.189 98.4617C112.215 98.3182 112.257 98.181 112.312 98.0543C112.434 97.8137 112.648 97.7105 112.837 97.5764C113.431 97.1588 113.842 96.3732 114.219 95.6049C114.439 95.158 114.657 94.6973 114.751 94.173C114.803 93.8341 114.828 93.4882 114.825 93.1417L114.858 91.3506C114.865 91.2348 114.857 91.1184 114.834 91.0068C114.802 90.8999 114.756 90.8033 114.696 90.7232C114.336 90.1864 113.863 89.825 113.346 89.6918C112.998 89.6042 112.642 89.6214 112.289 89.5801C111.606 89.501 110.931 89.2054 110.247 89.2741C109.172 89.3841 108.216 90.4275 107.709 91.7597C107.531 92.2358 107.345 92.6501 106.963 92.6501Z" fill="#464353"/>
<path d="M100.998 81.0027C101.014 81.2789 100.987 81.5565 100.921 81.8175C100.837 82.0684 100.626 82.2627 100.443 82.1612C100.499 81.9894 100.351 81.7848 100.215 81.8071C100.148 81.8282 100.085 81.8718 100.032 81.9344C99.9797 81.997 99.9388 82.0767 99.9131 82.1664C99.8216 82.4218 99.791 82.7116 99.826 82.9932C99.8689 83.337 100.014 83.6808 99.9757 84.0245C99.945 84.3168 99.7916 84.609 99.8738 84.884C99.9267 85.0076 99.9929 85.1189 100.07 85.214C100.178 85.3993 100.231 85.6355 100.218 85.8739C100.205 86.1123 100.127 86.3345 100 86.4946L102.06 86.5513C101.985 87.0343 102.138 87.5277 102.315 87.9557C102.81 89.1321 103.492 90.1322 104.308 90.8777C105.125 91.6232 106.054 92.0939 107.022 92.2529C106.97 92.2962 106.925 92.355 106.891 92.4254C106.857 92.4957 106.834 92.5757 106.825 92.6597C106.815 92.7436 106.819 92.8295 106.836 92.911C106.854 92.9925 106.883 93.0678 106.924 93.1313C107.091 93.3633 107.374 93.3341 107.584 93.1829C107.794 93.0316 107.959 92.7824 108.151 92.5898C108.489 92.2528 108.901 92.0967 109.314 92.1498C109.572 92.1842 109.823 92.3011 110.082 92.3217C110.845 92.3784 111.5 91.6101 112.231 91.2904C112.766 91.06 113.371 91.06 113.826 90.5925C114.02 90.3914 114.178 90.0613 114.122 89.733C114.074 89.5446 113.998 89.3724 113.9 89.2277C113.641 88.7601 113.489 88.1963 113.304 87.6652C112.937 86.6124 112.432 85.6656 111.816 84.8737C111.351 84.3035 110.859 83.7792 110.343 83.3043C110.217 83.173 110.083 83.058 109.943 82.9605C109.755 82.875 109.572 82.771 109.395 82.6494C109.15 82.4363 109.014 82.0598 108.828 81.7556C108.42 81.0886 107.793 80.781 107.289 80.2567C106.952 79.9129 106.655 79.4419 106.251 79.2718C106.056 79.1893 105.847 79.1824 105.651 79.0999C105.207 78.9108 104.883 78.3573 104.446 78.1339C104.1 77.962 103.719 78.0032 103.353 77.9396C102.951 77.8697 102.567 77.6652 102.233 77.3432C102.122 77.218 101.998 77.1182 101.865 77.0475C101.313 76.812 101.268 78.2507 101.217 78.7509C101.134 79.5159 100.998 80.2515 100.998 81.0027Z" fill="#6C63FF"/>
<path d="M101.536 85.8328C101.628 87.2371 100.87 88.5985 101.091 89.9754C101.138 90.2693 101.229 90.5477 101.262 90.8348C101.354 91.6513 101.005 92.4248 100.673 93.1072L97.8217 98.9687C97.7074 99.2264 97.5705 99.4631 97.4143 99.6734C96.8681 100.361 96.0507 100.282 95.3352 100.485C94.8322 100.628 94.3571 100.921 93.9422 101.344C93.9241 101.364 93.9121 101.393 93.9087 101.425C93.9053 101.457 93.9107 101.49 93.9237 101.516C94.0415 101.743 94.198 101.925 94.379 102.045C94.56 102.165 94.7596 102.22 94.9596 102.204C95.0345 102.343 94.9596 102.547 94.8565 102.644C94.7031 102.793 94.4883 102.833 94.4625 103.197C94.4518 103.324 94.4698 103.452 94.5141 103.563C94.6298 103.809 94.8088 103.983 95.0136 104.048C95.9955 104.471 97.0669 103.728 97.8058 102.718C98.5446 101.707 99.0748 100.431 99.8014 99.4018C100.203 98.8329 100.661 98.3447 101.072 97.7929C101.898 96.6928 102.538 95.3538 103.158 94.0113C103.361 93.6219 103.513 93.1863 103.61 92.7239C103.686 92.2667 103.652 91.7836 103.74 91.3298C103.855 90.7368 104.166 90.2624 104.424 89.7656C104.93 88.7893 105.268 87.5964 105.2 86.3932C105.133 85.1899 104.603 84.0056 103.793 83.5965C103.542 83.4556 103.265 83.4321 103.004 83.5295C102.672 83.6721 102.427 84.0572 102.2 84.425L101.658 85.2999C101.523 85.4932 101.417 85.7215 101.344 85.972C101.309 86.0977 101.301 86.235 101.32 86.3671C101.34 86.4993 101.387 86.6206 101.455 86.7163" fill="#FBBEBE"/>
<path d="M102.979 80.0625C102.603 80.0934 102.191 80.145 101.926 80.5197C101.816 80.6918 101.726 80.888 101.661 81.1007C101.404 81.8347 101.154 82.6013 101.136 83.4178C101.12 84.0709 101.258 84.7087 101.326 85.355C101.385 85.8913 101.235 86.4379 101.203 86.9811C101.668 86.7817 102.282 86.5101 102.704 86.1732C102.981 85.9197 103.275 85.7055 103.582 85.5337C104.03 85.3257 104.782 85.6833 105.204 85.9772C105.227 85.5578 105.004 84.8307 105.027 84.4113C105.031 84.2357 105.053 84.062 105.094 83.8956C105.157 83.7195 105.232 83.552 105.318 83.3954C105.481 83.0265 105.556 82.5947 105.532 82.1622C105.509 81.7298 105.388 81.319 105.187 80.9889C104.81 80.3942 104.219 80.1708 103.655 80.0796C103.3 80.0216 102.942 80.0038 102.585 80.0264" fill="#6C63FF"/>
<path d="M47.3749 68.037L44.9546 63.1209C44.9546 63.1209 44.9092 61.904 44.7509 61.6203C44.5925 61.3367 44.7165 60.7042 44.7165 60.7042C44.7165 60.7042 44.8871 60.3604 44.7398 60.3243C44.5925 60.2882 44.7165 59.5181 44.7165 59.5181L44.7054 58.2857C44.7054 58.2857 44.8417 57.0996 44.7288 56.816C44.6954 56.739 44.6787 56.6502 44.6807 56.5602C44.6826 56.4702 44.7032 56.3829 44.7398 56.3089C44.7398 56.3089 44.8748 55.63 44.7398 55.4495C44.6048 55.269 44.6379 54.217 44.6711 53.3782C44.7042 52.5394 44.4342 52.0667 44.4342 51.9412C44.4342 51.8157 43.5407 50.5815 43.5407 50.4698C43.5407 50.3581 42.9749 49.9008 42.6349 49.7822C42.295 49.6636 42.1268 49.5605 42.1379 49.4969C42.1489 49.4333 41.6064 49.1823 41.6064 49.1823C41.6064 49.1823 41.1315 49.1342 40.9498 48.8025C40.7682 48.4707 40.2134 48.3745 40.1999 48.371L40.1889 48.3057C40.1889 48.2816 40.1827 48.2576 40.1791 48.2335C40.2239 48.1335 40.2648 48.0302 40.3018 47.9241L40.3337 47.8279C40.5325 47.8296 40.7267 47.745 40.8897 47.5855C40.9699 47.4923 41.0355 47.3769 41.0821 47.2464C41.1288 47.1159 41.1557 46.9732 41.1609 46.8275C41.1706 46.5352 41.1249 46.2446 41.0284 45.9852C40.929 45.7016 40.7829 45.4059 40.8345 45.0965C40.8565 44.9642 40.913 44.8473 40.9425 44.7166C40.9864 44.4616 40.9573 44.1926 40.8615 43.9672C40.7755 43.7386 40.6565 43.5357 40.5608 43.314C40.4393 43.0301 40.3581 42.7161 40.3214 42.3892C40.3146 42.2153 40.2851 42.0446 40.2343 41.8856C40.1829 41.7735 40.1152 41.678 40.0355 41.6054C39.6813 41.2516 39.254 41.0704 38.8192 41.0897C38.5111 41.1035 38.2055 41.2204 37.8987 41.1671C37.7159 41.1231 37.536 41.0575 37.3611 40.9711C36.9819 40.813 36.5437 40.7494 36.2136 41.0536C35.8834 41.3579 35.7521 41.9561 35.5275 42.4288C35.3299 42.8413 35.0366 43.1885 34.8893 43.632C34.8893 43.632 34.8893 43.6148 34.8893 43.6079C34.8522 43.7089 34.8238 43.8156 34.8046 43.9259C34.7625 44.2761 34.7797 44.6353 34.8549 44.9745C34.8715 45.1571 34.9369 45.3241 35.0378 45.442C35.1495 45.5434 35.3029 45.5194 35.433 45.552L35.4183 45.6414C35.2858 46.5299 35.3966 47.4557 35.7288 48.2352C36.0609 49.0146 36.5901 49.5907 37.2114 49.8493C37.2114 49.8819 37.2114 49.9129 37.2114 49.9455C37.2111 50.0363 37.207 50.127 37.1991 50.2171C37.1991 50.2171 36.0614 49.8888 35.7558 50.1106C35.4502 50.3323 34.8512 50.5059 34.7604 50.6262C34.6696 50.7465 34.4438 50.6589 34.24 51.4015C34.0363 52.144 34.0142 52.9021 33.7491 53.251C33.484 53.5999 33.3539 53.8354 33.3416 54.0881C33.3293 54.3408 33.376 54.4044 33.2741 54.4834C33.1722 54.5625 33.0286 54.8943 33.0704 55.0215C33.086 55.1084 33.0826 55.1999 33.0608 55.2842C33.0389 55.3684 32.9995 55.4416 32.9476 55.4942C32.894 55.547 32.8511 55.6186 32.8233 55.7018C32.7955 55.7851 32.7838 55.877 32.7893 55.9686C32.7893 55.9686 32.7206 56.3124 32.5623 56.3966C32.4039 56.4808 32.3021 56.9965 32.3021 56.9965L31.789 57.8216L30.7728 56.247C30.6965 56.1294 30.59 56.0588 30.4766 56.0507C30.3632 56.0427 30.2522 56.0978 30.1677 56.2041L29.6682 56.8332C29.4757 56.8987 29.3017 57.0436 29.1687 57.2492C29.0605 57.4064 28.9728 57.5891 28.9097 57.7889L28.6373 58.1327C28.5512 58.282 28.4985 58.4637 28.4858 58.6548C28.4732 58.8459 28.5011 59.038 28.5661 59.207L29.2178 60.216V60.2246C28.9869 60.253 28.7675 60.3782 28.5882 60.5838C27.6161 61.7871 27.6063 62.8923 27.7511 63.3977C27.896 63.903 29.1307 65.8471 29.1307 65.8471C29.1307 65.8471 29.8474 67.1518 30.882 67.8445L30.8747 67.8565C30.8534 67.8876 30.8333 67.9203 30.8145 67.9545L30.7974 67.9854L30.7814 68.0164L30.763 68.0542C30.7581 68.0641 30.7535 68.0745 30.7495 68.0851L30.7299 68.1298C30.7253 68.1398 30.7212 68.1501 30.7176 68.1608C30.709 68.1814 30.7016 68.202 30.6943 68.2227C30.6916 68.2294 30.6891 68.2362 30.6869 68.2433C30.6771 68.2708 30.6673 68.2983 30.6587 68.3292L30.6489 68.3602C30.6427 68.3808 30.6378 68.4014 30.6317 68.4238C30.6279 68.4372 30.6246 68.451 30.6219 68.465L30.6071 68.5269C30.6031 68.5415 30.5999 68.5564 30.5973 68.5716C30.5973 68.5939 30.5875 68.6163 30.5838 68.6403C30.5801 68.6644 30.5777 68.6678 30.5752 68.6833C30.5728 68.6988 30.5629 68.7572 30.558 68.7968C30.558 68.8105 30.558 68.826 30.5519 68.8415C30.5458 68.8569 30.5458 68.8947 30.5421 68.9222C30.5384 68.9497 30.5421 68.9601 30.5421 68.9807L30.5347 69.058V69.1199C30.5347 69.1491 30.5347 69.1784 30.5286 69.2093C30.5224 69.2402 30.5286 69.2454 30.5286 69.2643C30.5286 69.3142 30.5286 69.364 30.5286 69.4173C30.5065 71.2668 30.5838 71.535 30.5838 71.535C30.6343 71.7058 30.7166 71.8545 30.8222 71.9655C30.9278 72.0765 31.0527 72.1457 31.184 72.1658C31.2484 72.1729 31.3131 72.1683 31.3767 72.1521C31.9658 72.0094 33.3404 71.6777 33.8313 71.8083C34.1246 71.8839 34.6659 71.7705 35.0513 71.6691L35.1532 71.6416L35.2231 71.9561L35.4465 71.8702L35.6367 72.0231L35.7595 72.1211C35.9828 73.18 36.8886 72.819 36.8886 72.819L37.1034 72.9909L39.2868 73.07C39.5319 73.2768 39.7909 73.4495 40.06 73.5856C40.0956 73.6019 40.1321 73.6134 40.1692 73.62C40.3734 73.6433 40.5783 73.6485 40.7829 73.6355C40.9498 73.6355 41.0787 73.62 41.0787 73.62C41.0787 73.62 41.0566 72.7898 41.0247 71.8599C41.7015 71.8364 42.3768 71.7589 43.0473 71.6278C44.2133 71.3425 44.6993 69.8573 44.8785 69.0632C44.9321 69.3876 44.9703 69.7166 44.9926 70.0481C45.0403 70.3397 45.101 70.6267 45.1743 70.9076C45.2368 71.132 45.3193 71.3446 45.4198 71.5401C46.2789 71.1293 45.7585 70.5088 45.5781 70.2441C45.3977 69.9794 45.7008 69.7542 45.7008 69.7542C45.7008 69.7542 45.9389 69.5325 45.9156 69.3279C45.8923 69.1234 45.8812 68.9016 46.652 68.9171C47.4228 68.9326 47.3749 68.037 47.3749 68.037ZM35.4305 57.9453C35.4403 58.0347 35.5533 59.0093 35.6441 59.2654C35.6712 59.4345 35.6799 59.6084 35.6699 59.7811C35.2145 59.7295 34.7395 59.702 34.7395 59.702C34.7529 59.7253 34.7614 59.7532 34.7641 59.7828L34.6917 59.7605L34.5886 59.7261L35.4281 57.9367L35.4305 57.9453ZM33.7663 61.6513L34.5554 61.8232L34.6217 61.8369C34.5994 62.0072 34.5859 62.1796 34.5812 62.3526C34.5812 62.3698 34.5984 62.3887 34.6242 62.411C34.6132 62.4978 34.6083 62.5859 34.6094 62.674C34.6217 62.76 34.9899 62.9491 35.4133 63.1055C35.4072 63.1381 35.4023 63.1691 35.3962 63.1966C35.0218 62.9215 34.4339 62.7926 34.3664 62.5881C34.2989 62.3835 32.2959 61.4038 32.2959 61.4038L32.0971 61.2645L32.6236 61.4038L32.7685 61.3831C33.0966 61.5027 33.4299 61.5923 33.7663 61.6513Z" fill="url(#paint0_linear_9_16)"/>
<path d="M44.7999 68.7246C44.7999 68.7246 44.487 71.3786 42.8951 71.7705C41.3033 72.1624 35.9889 72.0851 35.9889 72.0851C35.9889 72.0851 32.9501 71.4714 31.8516 67.8772C30.7532 64.283 30.0462 62.8511 30.9925 62.7892C31.9388 62.7273 37.0138 65.1957 37.3046 65.2232C37.5955 65.2507 45.081 59.7588 44.7999 68.7246Z" fill="#65617D"/>
<path opacity="0.05" d="M44.7999 68.7246C44.7999 68.7246 44.487 71.3786 42.8951 71.7705C41.3033 72.1624 35.9889 72.0851 35.9889 72.0851C35.9889 72.0851 32.9501 71.4714 31.8516 67.8772C30.7532 64.283 30.0462 62.8511 30.9925 62.7892C31.9388 62.7273 37.0138 65.1957 37.3046 65.2232C37.5955 65.2507 45.081 59.7588 44.7999 68.7246Z" fill="black"/>
<path d="M30.5494 71.6794C30.5988 71.8493 30.68 71.9974 30.7846 72.1079C30.8892 72.2183 31.0132 72.2871 31.1435 72.3068C31.2079 72.3123 31.2726 72.3072 31.3361 72.2913C31.9191 72.1503 33.2864 71.8203 33.7687 71.9475C34.0584 72.0214 34.5947 71.9097 34.9764 71.81C35.2305 71.743 35.417 71.6794 35.417 71.6794C35.417 71.6794 34.9678 69.5909 34.9126 69.529C34.8573 69.4671 32.8936 67.8101 32.8936 67.8101L31.3398 67.6537C31.1306 67.6975 30.9416 67.8527 30.8121 68.0869C30.6488 68.3653 30.5077 68.8208 30.4979 69.5685C30.4721 71.4095 30.5494 71.6794 30.5494 71.6794Z" fill="#3F3D56"/>
<path opacity="0.05" d="M30.5494 71.6794C30.5988 71.8493 30.6801 71.9974 30.7846 72.1079C30.8892 72.2183 31.0132 72.2871 31.1435 72.3068C30.9913 72.0317 30.8503 71.7447 30.7213 71.4473L30.7299 69.9244C30.699 69.5067 30.7384 69.0846 30.845 68.6921C30.9515 68.2996 31.1223 67.9475 31.3435 67.664C31.3435 67.664 30.5249 67.7414 30.5016 69.5789C30.4783 71.4164 30.5494 71.6794 30.5494 71.6794Z" fill="black"/>
<path opacity="0.1" d="M37.2887 68.3481L38.7357 66.7615L41.0112 63.6211L40.3975 63.5816C40.3054 63.6641 40.0477 63.9254 40.0379 64.2382C40.0268 64.6215 39.4242 64.2657 39.1088 64.484C38.7934 64.7023 37.2592 67.4577 36.9904 67.4388C36.7217 67.4199 36.5081 67.248 36.3952 67.5161L36.3878 67.5333L37.2887 68.3481Z" fill="black"/>
<path opacity="0.1" d="M30.8084 68.0903C30.86 68.1247 30.9127 68.1591 30.9655 68.19C32.064 68.8501 33.4202 70.2321 33.522 70.483C33.5834 70.636 34.3701 71.3047 34.9764 71.8066C35.2305 71.7395 35.417 71.6759 35.417 71.6759C35.417 71.6759 34.9678 69.5875 34.9126 69.5256C34.8574 69.4637 32.8936 67.8067 32.8936 67.8067L31.3398 67.6503C31.1286 67.6945 30.9379 67.8524 30.8084 68.0903Z" fill="black"/>
<path d="M27.7597 63.5902C27.9045 64.0921 29.1269 66.0242 29.1269 66.0242C29.1269 66.0242 29.9001 67.4371 30.9998 68.0869C32.0995 68.7366 33.4545 70.1289 33.5551 70.3799C33.6202 70.5415 34.4965 71.2806 35.1126 71.7877L35.2513 71.9011L35.5569 72.1504L35.7189 72.2793C35.7189 72.2793 36.0945 71.8581 36.4688 71.4336C36.8431 71.009 37.2052 70.593 37.2052 70.5741C37.2052 70.5552 37.3623 69.9931 37.3279 69.9622C37.2936 69.9313 37.2334 69.7284 37.0911 69.4757C36.9408 69.1956 36.7452 68.9693 36.5204 68.8157C36.1951 68.5815 35.9356 68.2006 35.784 67.7345C35.784 67.7345 35.7349 67.6846 35.6612 67.6176C35.5086 67.4707 35.338 67.3641 35.158 67.303C34.9126 67.2601 34.4511 66.5536 34.4511 66.5536C34.2716 66.39 34.122 66.1698 34.0142 65.9107C33.8914 65.567 32.1572 63.8927 31.9964 63.738L36.2111 67.5299L37.2199 68.4375L38.667 66.8527L40.9424 63.7123L40.1913 63.6641C39.0867 63.5971 37.123 63.4922 36.8775 63.5713C36.6764 63.6361 36.4692 63.6553 36.2638 63.628C36.2638 63.628 35.7042 63.6624 35.3335 63.3891C34.9629 63.1158 34.3799 62.9869 34.3124 62.784C34.2449 62.5812 32.2615 61.6083 32.2615 61.6083C32.2615 61.6083 29.5614 59.5989 28.5955 60.7918C27.6296 61.9848 27.6136 63.0849 27.7597 63.5902Z" fill="#65617D"/>
<path d="M36.4701 52.065L36.8174 53.6824L37.2666 57.3248L38.9149 57.4812L39.3862 56.3811L39.8624 55.2742C39.8624 55.2742 40.1594 53.8028 40.373 52.3795C40.5608 51.1196 40.6847 49.8957 40.4798 49.7633C40.2969 49.6465 40.1779 49.2219 40.0993 48.7647C40.0895 48.7097 40.0809 48.6512 40.0735 48.5928C40.0186 48.2064 39.9817 47.8153 39.9631 47.4222C39.9631 47.4222 36.5106 47.1712 36.9929 49.1652C37.079 49.5058 37.123 49.8644 37.123 50.2257C37.123 50.3186 37.123 50.4097 37.1108 50.4956C37.0868 50.8048 37.0176 51.1038 36.9073 51.3739C36.7971 51.6439 36.6482 51.8792 36.4701 52.065Z" fill="#EE8E9E"/>
<path d="M35.7533 51.7985L35.876 54.5488L36.1559 56.8882L36.4701 57.9728L36.7511 63.8996C36.7511 63.8996 39.4512 64.3379 40.1115 63.891C40.1602 63.8649 40.2027 63.8202 40.2343 63.7621C41.0284 62.0827 40.7682 57.2182 40.7682 57.2182L41.0701 54.0778L40.8688 52.4483L40.3779 52.3761L40.0023 52.3193C40.0023 52.3193 39.9176 52.4655 39.7949 52.6923C39.4623 53.306 38.8511 54.5161 38.8928 55.0197C38.948 55.7073 38.8253 56.4172 38.6338 56.5272C38.4424 56.6372 38.2865 56.8263 38.2534 56.6372C38.2057 56.4787 38.1937 56.3036 38.219 56.1353C38.2534 55.8672 38.0729 55.0507 38.0729 55.0507C38.0729 55.0507 37.771 54.0933 37.7931 53.6859C37.8152 53.2785 37.76 52.8058 37.6704 52.6958C37.5808 52.5858 37.4568 52.4758 37.5575 51.9738C37.6581 51.4719 37.1156 50.4939 37.1156 50.4939L35.7533 51.7985Z" fill="#E3E8F4"/>
<path opacity="0.1" d="M39.3236 58.6604L39.4365 63.3547L40.0833 63.8583C40.1319 63.831 40.1743 63.7859 40.206 63.7277C41.0001 62.0483 40.7399 57.1838 40.7399 57.1838L41.0431 54.0434L40.8406 52.4139L40.3496 52.3417C40.5387 51.0817 40.6614 49.8596 40.4564 49.7255C40.2736 49.6086 40.1545 49.1841 40.0772 48.7285L39.7274 52.0495C39.7274 52.0495 39.7568 52.3486 39.7667 52.658C39.7812 52.8536 39.7716 53.0513 39.7384 53.2424C39.6931 53.4994 39.6856 53.7667 39.7163 54.0279C39.5138 54.5264 39.4132 55.4512 39.3641 56.3433C39.2978 57.5293 39.3236 58.6604 39.3236 58.6604Z" fill="black"/>
<path d="M40.087 48.6461C40.087 48.6461 40.6528 48.744 40.832 49.0741C41.0112 49.4041 41.4825 49.4522 41.4825 49.4522C41.4825 49.4522 42.02 49.7032 42.009 49.7651C41.9979 49.8269 42.1661 49.9232 42.4999 50.0487C42.8338 50.1742 43.3971 50.6297 43.3971 50.7362C43.3971 50.8428 44.282 52.0701 44.282 52.1956C44.282 52.3211 44.5508 52.7921 44.5177 53.624C44.4845 54.456 44.4501 55.5148 44.5852 55.6867C44.7202 55.8586 44.5852 56.5341 44.5852 56.5341C44.5489 56.6077 44.5285 56.6943 44.5266 56.7836C44.5246 56.873 44.5411 56.9612 44.5741 57.0377C44.6858 57.3196 44.5508 58.4971 44.5508 58.4971L44.5631 59.7227C44.5631 59.7227 44.4403 60.491 44.5852 60.5237C44.73 60.5563 44.5631 60.9001 44.5631 60.9001C44.5631 60.9001 44.4403 61.5275 44.5962 61.8111C44.7521 62.0948 44.7975 63.3014 44.7975 63.3014L47.1969 68.1848C47.1969 68.1848 47.2313 69.0804 46.4691 69.0649C45.7069 69.0495 45.7168 69.2695 45.7401 69.4723C45.7634 69.6751 45.5265 69.8969 45.5265 69.8969C45.5265 69.8969 45.2246 70.1169 45.4038 70.3833C45.583 70.6497 46.0985 71.2634 45.2467 71.6708C45.1463 71.477 45.0639 71.2662 45.0012 71.0434C44.929 70.7664 44.8692 70.4834 44.822 70.196C44.822 70.196 44.7435 69.0013 44.5864 68.8449C44.4293 68.6885 44.4514 67.9339 44.4514 67.9339C44.4514 67.9339 44.676 67.322 44.3618 67.0744C44.0476 66.8269 39.4967 63.2928 39.4967 63.2928L39.3862 58.5968C39.3862 58.5968 39.3076 55.1263 39.7789 53.9643C39.7482 53.7031 39.7557 53.4358 39.801 53.1788C39.8796 52.8969 39.79 51.9859 39.79 51.9859L40.087 48.6461Z" fill="#3F3D56"/>
<path opacity="0.1" d="M37.1487 50.5368C37.1487 50.5368 36.0221 50.212 35.7189 50.432C35.4158 50.652 34.823 50.8239 34.7371 50.9476C34.6511 51.0714 34.4241 50.9803 34.2216 51.7177C34.0191 52.4551 33.9982 53.2097 33.7392 53.5552C33.4803 53.9007 33.3477 54.1362 33.3367 54.3872C33.3256 54.6381 33.3698 54.7017 33.2692 54.7791C33.1685 54.8564 33.0237 55.1882 33.0667 55.3137C33.1096 55.4391 35.3986 58.2031 35.3986 58.2031C35.3986 58.2031 35.5115 59.2551 35.6121 59.5215C35.7128 59.788 35.5005 63.463 35.2758 63.7139C35.0512 63.9649 36.7842 63.9443 36.7842 63.9443C36.7842 63.9443 36.8628 61.5378 36.9303 61.4072C36.9978 61.2765 36.8849 58.7068 36.8849 58.7068C36.8849 58.7068 36.8738 56.5083 37.0199 55.9273C37.1659 55.3463 37.1426 53.4143 37.1426 53.4143C37.1426 53.4143 37.2715 52.2557 37.4286 51.9859C37.5857 51.716 37.1487 50.5368 37.1487 50.5368Z" fill="black"/>
<path d="M37.1156 50.4904C37.1156 50.4904 35.989 50.1656 35.6858 50.3839C35.3827 50.6022 34.7886 50.7775 34.7039 50.8995C34.6193 51.0216 34.3897 50.9305 34.1885 51.6696C33.9872 52.4087 33.9639 53.1599 33.7061 53.5054C33.4484 53.8509 33.3134 54.0864 33.3023 54.3373C33.2913 54.5883 33.3367 54.6519 33.2348 54.731C33.133 54.81 32.9894 55.1383 33.0335 55.2638C33.0777 55.3893 35.3655 58.1533 35.3655 58.1533C35.3655 58.1533 35.4772 59.2053 35.579 59.4717C35.6809 59.7381 35.4661 63.4132 35.2415 63.6641C35.0169 63.9151 36.756 63.8927 36.756 63.8927C36.756 63.8927 36.8346 61.4863 36.9009 61.3573C36.9671 61.2284 36.8567 58.6552 36.8567 58.6552C36.8567 58.6552 36.8456 56.4585 36.9917 55.8775C37.1377 55.2965 37.1206 53.3644 37.1206 53.3644C37.1206 53.3644 37.2494 52.2059 37.4065 51.936C37.5636 51.6662 37.1156 50.4904 37.1156 50.4904Z" fill="#3F3D56"/>
<path opacity="0.1" d="M36.9978 49.1617C37.0839 49.5023 37.1279 49.861 37.1279 50.2223C37.6786 50.4482 38.2674 50.4102 38.801 50.1144C39.3346 49.8186 39.7824 49.2819 40.0735 48.5893C40.0185 48.2029 39.9816 47.8119 39.963 47.4187C39.963 47.4187 36.5155 47.1661 36.9978 49.1617Z" fill="black"/>
<path d="M35.293 46.6796C35.2926 47.6012 35.5447 48.4879 35.9973 49.1568C36.45 49.8257 37.0686 50.2258 37.7257 50.2746C38.3828 50.3235 39.0282 50.0173 39.5289 49.4192C40.0295 48.8212 40.3472 47.9768 40.4164 47.0604C40.4856 46.1439 40.301 45.2252 39.9008 44.4937C39.5005 43.7622 38.9151 43.2737 38.2652 43.129C37.6154 42.9843 36.9507 43.1943 36.4081 43.7159C35.8656 44.2374 35.4867 45.0306 35.3495 45.9319C35.3119 46.1777 35.2929 46.4283 35.293 46.6796Z" fill="#EE8E9E"/>
<path d="M33.6448 55.006L33.0311 55.2724C33.0468 55.3591 33.0435 55.4504 33.0216 55.5344C32.9997 55.6184 32.9602 55.6913 32.9084 55.7434C32.855 55.7956 32.8124 55.8667 32.785 55.9494C32.7577 56.0322 32.7464 56.1236 32.7525 56.2144C32.7525 56.2144 32.685 56.5582 32.5279 56.639C32.3708 56.7198 32.2702 57.2354 32.2702 57.2354L31.7547 58.0674C31.7547 58.0674 31.5632 58.2874 31.5976 58.3974C31.632 58.5074 31.3951 58.5384 31.3951 58.5384L31.5178 61.3333L32.5831 61.6169L33.2447 61.5224L33.7822 61.2405L34.2535 60.8469L34.4659 60.0785L35.4084 58.0674L33.6448 55.006Z" fill="#3F3D56"/>
<path d="M31.5485 58.7532C31.5485 58.7532 30.1812 55.9909 29.1601 57.4812C28.1389 58.9715 29.5749 61.3917 29.9112 61.3127C30.2475 61.2336 31.8516 61.1081 31.8516 61.1081L31.5485 58.7532Z" fill="#EE8E9E"/>
<path d="M34.7695 57.5588L28.7297 53.2414C28.6368 53.1749 28.5229 53.2266 28.4755 53.3568L26.1203 59.8192C26.0729 59.9494 26.1098 60.1089 26.2028 60.1753L32.2425 64.4927C32.3355 64.5592 32.4493 64.5075 32.4968 64.3773L34.8519 57.9149C34.8994 57.7847 34.8625 57.6253 34.7695 57.5588Z" fill="#3F3D56"/>
<path d="M34.2078 57.9427L28.848 54.1113L26.7863 59.7684L32.1461 63.5998L34.2078 57.9427Z" fill="#6C63FF"/>
<path d="M27.6112 56.9277C27.6655 56.9277 27.7094 56.8662 27.7094 56.7902C27.7094 56.7143 27.6655 56.6527 27.6112 56.6527C27.557 56.6527 27.5131 56.7143 27.5131 56.7902C27.5131 56.8662 27.557 56.9277 27.6112 56.9277Z" fill="#E6E8EC"/>
<path d="M33.4128 61.182C33.503 61.182 33.576 61.0796 33.576 60.9534C33.576 60.8271 33.503 60.7248 33.4128 60.7248C33.3227 60.7248 33.2496 60.8271 33.2496 60.9534C33.2496 61.0796 33.3227 61.182 33.4128 61.182Z" fill="#E6E8EC"/>
<path d="M30.6635 59.3342C30.6513 61.4072 33.7122 61.8472 33.7122 61.8472L34.494 62.0191L34.8451 62.0965L34.9911 60.0716C34.9911 60.0716 34.8303 60.0372 34.6303 59.9719C34.3333 59.8757 33.9491 59.7089 33.8693 59.4734C33.7405 59.0832 30.6721 57.2612 30.6635 59.3342Z" fill="#EE8E9E"/>
<path opacity="0.1" d="M35.3495 45.9319C35.4199 45.9392 35.4862 45.9805 35.5373 46.0488C35.6232 46.1777 35.6281 46.4063 35.741 46.4854C35.7832 46.5103 35.8297 46.5175 35.8748 46.506C36.173 46.4476 36.3449 45.9766 36.632 45.8459C36.799 45.7859 36.9756 45.8071 37.1328 45.9061C37.1967 45.9351 37.2542 45.9866 37.2997 46.0557C37.3954 46.2275 37.3279 46.4854 37.3721 46.6951C37.4335 46.9873 37.6826 47.1025 37.8974 47.1403C38.1122 47.1781 38.3552 47.2004 38.4988 47.4273C38.5463 47.5124 38.5804 47.6106 38.5988 47.7155C38.6173 47.8204 38.6196 47.9296 38.6056 48.0358C38.5927 48.1098 38.5927 48.187 38.6056 48.261C38.6645 48.4965 38.9554 48.4604 39.0315 48.2748C39.0879 48.139 39.0707 48.0272 39.2021 47.9894C39.2959 47.979 39.3901 48.002 39.4758 48.0565C39.7043 48.1663 39.9449 48.2181 40.1864 48.2094C40.34 47.7506 40.4226 47.2515 40.4289 46.7448C40.4351 46.2382 40.3648 45.7354 40.2226 45.2694C40.0803 44.8034 39.8694 44.3848 39.6036 44.041C39.3378 43.6972 39.0231 43.436 38.6801 43.2745C38.3371 43.113 37.9737 43.0548 37.6135 43.1037C37.2534 43.1527 36.9047 43.3077 36.5904 43.5587C36.276 43.8096 36.0031 44.1507 35.7894 44.5597C35.5758 44.9687 35.4263 45.4363 35.3507 45.9319H35.3495Z" fill="black"/>
<path d="M38.6044 48.1665C38.5915 48.0925 38.5915 48.0153 38.6044 47.9413C38.6184 47.8354 38.6161 47.7264 38.5977 47.6218C38.5793 47.5172 38.5452 47.4192 38.4976 47.3345C38.354 47.1059 38.1122 47.0853 37.8962 47.0458C37.6802 47.0062 37.4323 46.8928 37.3709 46.6006C37.3267 46.3909 37.3942 46.1348 37.2985 45.9629C37.2537 45.8926 37.1959 45.8409 37.1316 45.8133C36.9745 45.7138 36.7979 45.692 36.6308 45.7514C36.3436 45.8821 36.1718 46.3531 35.8736 46.4115C35.8285 46.4238 35.7819 46.4166 35.7398 46.3909C35.6269 46.3118 35.6171 46.0832 35.5361 45.9543C35.3998 45.7532 35.1409 45.8838 34.9752 45.7342C34.8747 45.6168 34.8098 45.4503 34.7935 45.2684C34.7193 44.9313 34.7025 44.5746 34.7444 44.2268C34.8414 43.6441 35.2145 43.2436 35.4514 42.7434C35.6735 42.2792 35.7987 41.6914 36.1313 41.3837C36.4639 41.076 36.8923 41.1448 37.2691 41.3012C37.4423 41.3878 37.6205 41.4533 37.8017 41.4971C38.1049 41.5487 38.4092 41.4335 38.7136 41.4198C39.145 41.4003 39.5689 41.5816 39.9189 41.9355C39.9978 42.0076 40.0647 42.1025 40.1152 42.2139C40.1658 42.3719 40.1958 42.5413 40.2036 42.7141C40.2395 43.0387 40.3199 43.3504 40.4405 43.632C40.5337 43.8538 40.6528 44.0532 40.7375 44.2818C40.8322 44.5059 40.8612 44.7726 40.8185 45.0261C40.789 45.155 40.7326 45.2719 40.7105 45.4042C40.6614 45.7102 40.805 46.0041 40.9032 46.286C40.9987 46.544 41.044 46.8328 41.0345 47.1231C41.0293 47.2678 41.0027 47.4094 40.9564 47.539C40.9102 47.6686 40.8452 47.7833 40.7657 47.876C40.599 48.038 40.4003 48.1227 40.1975 48.1184C39.9515 48.1289 39.7062 48.077 39.4733 47.9654C39.3874 47.9118 39.2934 47.8888 39.1996 47.8983C39.0683 47.9362 39.0855 48.0479 39.029 48.1837C38.9542 48.3659 38.6645 48.402 38.6044 48.1665Z" fill="#3F3D56"/>
<path opacity="0.1" d="M37.2212 68.4409L38.6682 66.8561L40.9437 63.7157L40.1926 63.6675C40.1044 63.7792 40.0481 63.9319 40.0342 64.0973C40.0232 64.4806 39.4206 64.123 39.1052 64.3431C38.7897 64.5631 37.2556 67.3168 36.9868 67.2979C36.718 67.279 36.5044 67.1071 36.3915 67.3735L36.3842 67.3907C36.3394 67.463 36.2791 67.513 36.2123 67.5334L37.2212 68.4409Z" fill="black"/>
<path d="M34.3063 68.3309L35.0329 71.5814L35.147 72.0971L35.4931 71.9647L36.2565 71.6708L39.6537 70.3644C40.0817 70.3384 40.5005 70.1824 40.8811 69.9072C41.5233 69.4032 42.2583 69.1788 42.9921 69.2626C43.4413 69.321 43.9408 69.0494 44.3556 67.9768C44.3556 67.9768 45.297 64.0835 42.9209 62.968C40.5448 61.8524 40.4306 63.561 40.4306 63.561L40.3975 63.5885C40.3055 63.671 40.0477 63.9323 40.0379 64.2451C40.0269 64.6284 39.4242 64.2726 39.1088 64.4909C38.7934 64.7092 37.2592 67.4646 36.9904 67.4457C36.7217 67.4268 36.5081 67.2549 36.3952 67.5231L36.3878 67.5402C36.3044 67.7001 36.0552 67.7379 35.8895 67.7431C35.838 67.7469 35.7864 67.7469 35.7349 67.7431L35.7128 67.7517L35.541 67.8239L34.3063 68.3309Z" fill="#65617D"/>
<path opacity="0.1" d="M34.4941 62.0208L34.8451 62.0982L34.9911 60.0733C34.9911 60.0733 34.8304 60.039 34.6303 59.9736C34.6831 60.2573 34.5628 61.3488 34.4941 62.0208Z" fill="black"/>
<path opacity="0.1" d="M43.6622 52.5565C43.6622 52.5565 44.7042 52.132 44.4465 56.278C44.2675 58.8085 43.4995 61.1863 42.2606 63.0453C42.2606 63.0453 40.0404 64.4101 39.0425 64.1901C38.0447 63.9701 37.3169 63.9237 37.3169 63.9237C37.0025 63.7013 36.6585 63.5731 36.3068 63.5472C35.7472 63.5163 34.5702 63.0315 34.5468 62.8717C34.5235 62.7118 34.8389 60.4068 34.7039 60.2349C34.7039 60.2349 36.2737 60.3243 36.4308 60.4824C36.5879 60.6405 36.8125 60.5288 36.9806 60.4824C37.1488 60.436 37.6642 59.8103 38.6842 60.3604C38.6842 60.3604 39.0315 60.4068 39.1665 60.2813C39.2765 60.2095 39.4019 60.1984 39.5175 60.2504C39.6048 60.2098 39.6874 60.1519 39.763 60.0785C39.7961 60.0166 40.0661 60.0785 40.0661 60.0785C40.0822 60.0885 40.0996 60.0936 40.1172 60.0934C40.1348 60.0932 40.1522 60.0877 40.1681 60.0773C40.1841 60.0668 40.1983 60.0517 40.2097 60.0329C40.2211 60.0142 40.2295 59.9922 40.2343 59.9685C40.2698 59.8403 40.3232 59.7235 40.3914 59.6247C40.3914 59.6247 40.6933 57.2388 41.2652 56.3433C41.3109 56.2874 41.346 56.2166 41.3674 56.1371C41.3888 56.0576 41.3959 55.972 41.388 55.8878C41.3413 55.6334 42.317 52.0529 43.6622 52.5565Z" fill="black"/>
<path d="M43.634 52.2368C43.634 52.2368 44.6772 51.814 44.4195 55.9583C44.241 58.4889 43.4729 60.867 42.2336 62.7256C42.2336 62.7256 40.0134 64.0921 39.0156 63.8721C38.0177 63.6521 37.2887 63.6005 37.2887 63.6005C36.9748 63.378 36.6312 63.2498 36.2798 63.2241C35.719 63.1914 34.542 62.7084 34.5199 62.5485C34.4978 62.3887 34.8107 60.0836 34.677 59.91C34.677 59.91 36.2467 60.0011 36.4038 60.1593C36.5609 60.3174 36.7843 60.204 36.9524 60.1593C37.1206 60.1146 37.636 59.4872 38.6572 60.0355C38.6572 60.0355 39.0045 60.0836 39.1383 59.9581C39.2484 59.8869 39.3734 59.8753 39.4893 59.9255C39.5763 59.8839 39.6589 59.8261 39.7348 59.7536C39.7679 59.69 40.0367 59.7536 40.0367 59.7536C40.0528 59.7637 40.0702 59.7688 40.0878 59.7685C40.1054 59.7683 40.1228 59.7628 40.1387 59.7524C40.1547 59.742 40.1688 59.7268 40.1802 59.7081C40.1916 59.6893 40.2 59.6673 40.2048 59.6436C40.2403 59.5155 40.2937 59.3986 40.3619 59.2998C40.3619 59.2998 40.6651 56.914 41.237 56.0184C41.2827 55.9625 41.3178 55.8917 41.3392 55.8122C41.3606 55.7328 41.3677 55.6471 41.3598 55.5629C41.3143 55.3154 42.2888 51.7401 43.634 52.2368Z" fill="#3F3D56"/>
<path opacity="0.1" d="M35.5373 67.8152L37.0174 70.3248L37.0273 70.3111C37.0383 70.263 37.1844 69.7301 37.15 69.6974C37.1156 69.6648 36.8591 68.881 36.3436 68.5509C36.0814 68.3719 35.8613 68.0916 35.7091 67.743L35.5373 67.8152Z" fill="black"/>
<path opacity="0.1" d="M35.5569 72.1589L35.719 72.2879C35.719 72.2879 36.0945 71.8667 36.4689 71.4422C36.8432 71.0176 37.2053 70.6016 37.2053 70.5827C37.2053 70.5638 37.3624 70.0017 37.328 69.9708C37.2936 69.9398 37.2335 69.737 37.0911 69.4843C36.0872 69.0907 36.7229 70.067 36.8113 70.1117C36.8113 70.1117 35.5901 69.7181 35.5226 71.5831C35.5168 71.7763 35.5283 71.9698 35.5569 72.1589Z" fill="black"/>
<path d="M36.7953 72.9479L37.0088 73.1198L39.1726 73.1971C39.4152 73.4037 39.6717 73.5765 39.9385 73.7128C39.9738 73.7276 40.0099 73.7385 40.0465 73.7455C40.2473 73.7684 40.449 73.7736 40.6503 73.7609C40.816 73.7609 40.9437 73.7455 40.9437 73.7455C40.9437 73.7455 40.8418 69.9243 40.7645 69.5221C40.7276 69.3296 40.546 69.3709 40.3668 69.4671C40.2325 69.5441 40.1028 69.6361 39.979 69.7421C39.979 69.7421 39.0609 69.8676 38.9149 69.9776C38.7688 70.0876 38.354 69.914 38.0963 69.9776C37.8385 70.0412 37.3783 69.5531 37.3783 69.5531C36.1227 68.9721 36.8297 70.055 36.9192 70.1031C36.9192 70.1031 35.6919 69.7095 35.6293 71.5745C35.5667 73.4395 36.7953 72.9479 36.7953 72.9479Z" fill="#3F3D56"/>
<path d="M39.9238 71.4731C39.9471 72.2638 40.3877 73.2453 40.6504 73.7644C40.816 73.7644 40.9437 73.7489 40.9437 73.7489C40.9437 73.7489 40.8418 69.9278 40.7645 69.5256C40.7277 69.333 40.546 69.3743 40.3668 69.4706C40.1496 70.0412 39.9041 70.8336 39.9238 71.4731Z" fill="#565387"/>
<path opacity="0.1" d="M39.9238 71.4731C39.9471 72.2638 40.3877 73.2453 40.6504 73.7644C40.816 73.7644 40.9437 73.7489 40.9437 73.7489C40.9437 73.7489 40.8418 69.9278 40.7645 69.5256C40.7277 69.333 40.546 69.3743 40.3668 69.4706C40.1496 70.0412 39.9041 70.8336 39.9238 71.4731Z" fill="black"/>
<path opacity="0.05" d="M39.5531 71.5779C39.7029 72.3411 39.7004 73.1971 39.9385 73.7163C39.9739 73.731 40.01 73.7419 40.0465 73.7489C40.2474 73.7719 40.449 73.777 40.6504 73.7644C40.816 73.7644 40.9437 73.7489 40.9437 73.7489C40.9437 73.7489 40.8418 69.9278 40.7645 69.5256C40.7277 69.333 40.546 69.3743 40.3668 69.4706C40.2325 69.5475 40.1028 69.6395 39.979 69.7456C39.979 69.7456 39.3629 70.5999 39.5531 71.5779Z" fill="black"/>
<path opacity="0.1" d="M32.0885 63.8308C32.0885 63.8308 33.1636 64.319 34.0743 66.0551L32.0885 63.8308Z" fill="black"/>
<g opacity="0.1">
<path d="M40.8223 44.9882C40.8223 45.0003 40.8223 45.0106 40.8162 45.0227C40.8058 45.0677 40.793 45.1116 40.778 45.1539C40.7898 45.0972 40.8047 45.0418 40.8223 44.9882Z" fill="black"/>
<path d="M34.742 44.2267C34.7602 44.1168 34.7882 44.0106 34.8254 43.9105C34.8254 43.9362 34.8132 43.9637 34.8083 43.9913C34.7673 44.3393 34.7846 44.6958 34.8586 45.0329C34.8748 45.2144 34.9392 45.3807 35.039 45.4987C35.2059 45.6483 35.4649 45.5176 35.6011 45.7187C35.687 45.8477 35.6919 46.0763 35.8048 46.1554C35.8469 46.1811 35.8936 46.1883 35.9386 46.176C36.2369 46.1175 36.4087 45.6466 36.6959 45.5159C36.8629 45.4557 37.0397 45.4775 37.1966 45.5778C37.261 45.6053 37.3187 45.6571 37.3635 45.7273C37.4593 45.8992 37.3918 46.1554 37.436 46.3651C37.4973 46.6573 37.7465 46.7724 37.9613 46.8103C38.176 46.8481 38.4191 46.8704 38.5626 47.099C38.6102 47.1837 38.6443 47.2817 38.6628 47.3863C38.6812 47.4909 38.6834 47.5998 38.6694 47.7058C38.6566 47.7798 38.6566 47.857 38.6694 47.931C38.7283 48.1665 39.0192 48.1304 39.0953 47.9447C39.1518 47.8089 39.1346 47.6972 39.2659 47.6594C39.3597 47.6498 39.4537 47.6728 39.5396 47.7264C39.7724 47.8381 40.0177 47.8899 40.2637 47.8794C40.4666 47.8838 40.6653 47.799 40.832 47.637C40.9049 47.5569 40.9643 47.4554 41.0063 47.3397C40.9684 47.5502 40.8821 47.7374 40.7608 47.8725C40.5941 48.0345 40.3954 48.1192 40.1925 48.1149C39.9466 48.1254 39.7012 48.0736 39.4684 47.9619C39.3825 47.9083 39.2885 47.8853 39.1947 47.8949C39.0634 47.9327 39.0806 48.0444 39.0254 48.1802C38.948 48.3659 38.6572 48.402 38.5982 48.1665C38.586 48.0924 38.586 48.0154 38.5982 47.9413C38.6123 47.8353 38.61 47.7264 38.5916 47.6218C38.5732 47.5171 38.539 47.4192 38.4915 47.3345C38.3479 47.1059 38.1061 47.0853 37.8901 47.0457C37.6741 47.0062 37.4261 46.8928 37.3648 46.6005C37.3206 46.3908 37.3881 46.1347 37.2924 45.9628C37.2479 45.8928 37.1906 45.8411 37.1267 45.8133C36.9691 45.7138 36.7922 45.692 36.6247 45.7514C36.3387 45.882 36.1657 46.353 35.8674 46.4115C35.8224 46.4238 35.7757 46.4166 35.7337 46.3908C35.6207 46.3118 35.6109 46.0832 35.5299 45.9542C35.3937 45.7531 35.136 45.8838 34.969 45.7342C34.8685 45.6168 34.8036 45.4503 34.7874 45.2684C34.7144 44.9309 34.6988 44.5742 34.742 44.2267Z" fill="black"/>
</g>
<path opacity="0.1" d="M40.9964 56.7954C40.7902 57.1838 40.5558 57.5431 40.3742 57.9522C40.1769 58.3555 40.081 58.8393 40.1017 59.3273C40.2895 59.0574 40.3766 58.6827 40.4945 58.3441C40.6957 57.77 40.9952 57.2835 41.2493 56.7575C41.2971 56.6561 41.6064 56.07 41.4505 56.0459C41.3204 56.0201 41.0664 56.663 40.9964 56.7954Z" fill="black"/>
<path d="M42.1011 93.5748C42.2496 94.2417 42.3993 94.9104 42.5846 95.5584C42.9185 96.685 43.3387 97.7576 43.8377 98.7573C44.1595 99.4155 44.5052 100.05 44.8736 100.658C45.3351 101.42 45.8555 102.186 46.0126 103.159C46.1071 103.721 46.0752 104.308 46.1144 104.878C46.1537 105.449 46.2875 106.061 46.6201 106.405C46.857 106.65 47.1601 106.724 47.451 106.788C47.6596 106.834 47.9198 106.85 48.0278 106.597C48.0656 106.494 48.0854 106.38 48.0855 106.264L48.1358 105.423C48.1457 105.241 48.1923 105.009 48.3224 105C48.4525 104.992 48.5175 105.234 48.628 105.344C48.7753 105.488 48.9962 105.344 49.0772 105.126C49.1445 104.889 49.1488 104.627 49.0895 104.387C49.0001 103.908 48.8394 103.462 48.6179 103.077C48.3964 102.691 48.1192 102.376 47.8045 102.152C47.5859 102.029 47.3763 101.876 47.1785 101.697C46.9777 101.452 46.8112 101.157 46.6876 100.827C45.5486 98.2003 44.4035 95.5601 43.5996 92.7016C43.4412 92.1907 43.3343 91.6516 43.2818 91.0995C43.2425 90.5375 43.3051 89.972 43.3308 89.4082C43.3784 88.3953 43.3113 87.3784 43.132 86.3949C43.0928 86.1367 43.0236 85.8893 42.9271 85.6627C42.5957 84.9596 41.8225 84.8548 41.3315 85.3395C41.1508 85.5343 41.0009 85.7795 40.8914 86.0598C40.782 86.34 40.7154 86.6491 40.6958 86.9673C40.6602 87.538 40.8946 88.1293 41.0137 88.6604C41.3745 90.3003 41.737 91.9384 42.1011 93.5748Z" fill="#A1616A"/>
<path opacity="0.05" d="M42.1011 93.5748C42.2496 94.2417 42.3993 94.9104 42.5846 95.5584C42.9185 96.685 43.3387 97.7576 43.8377 98.7573C44.1595 99.4155 44.5052 100.05 44.8736 100.658C45.3351 101.42 45.8555 102.186 46.0126 103.159C46.1071 103.721 46.0752 104.308 46.1144 104.878C46.1537 105.449 46.2875 106.061 46.6201 106.405C46.857 106.65 47.1601 106.724 47.451 106.788C47.6596 106.834 47.9198 106.85 48.0278 106.597C48.0656 106.494 48.0854 106.38 48.0855 106.264L48.1358 105.423C48.1457 105.241 48.1923 105.009 48.3224 105C48.4525 104.992 48.5175 105.234 48.628 105.344C48.7753 105.488 48.9962 105.344 49.0772 105.126C49.1445 104.889 49.1488 104.627 49.0895 104.387C49.0001 103.908 48.8394 103.462 48.6179 103.077C48.3964 102.691 48.1192 102.376 47.8045 102.152C47.5859 102.029 47.3763 101.876 47.1785 101.697C46.9777 101.452 46.8112 101.157 46.6876 100.827C45.5486 98.2003 44.4035 95.5601 43.5996 92.7016C43.4412 92.1907 43.3343 91.6516 43.2818 91.0995C43.2425 90.5375 43.3051 89.972 43.3308 89.4082C43.3784 88.3953 43.3113 87.3784 43.132 86.3949C43.0928 86.1367 43.0236 85.8893 42.9271 85.6627C42.5957 84.9596 41.8225 84.8548 41.3315 85.3395C41.1508 85.5343 41.0009 85.7795 40.8914 86.0598C40.782 86.34 40.7154 86.6491 40.6958 86.9673C40.6602 87.538 40.8946 88.1293 41.0137 88.6604C41.3745 90.3003 41.737 91.9384 42.1011 93.5748Z" fill="black"/>
<path d="M34.9457 121.658C35.1678 121.766 35.4039 121.806 35.6379 121.775C35.6551 121.507 35.9128 121.447 36.1043 121.461C36.1969 121.456 36.2887 121.486 36.3706 121.546C36.4185 121.589 36.4553 121.651 36.5019 121.696C36.5851 121.76 36.6783 121.794 36.7732 121.794L37.7698 121.911C38.2141 121.964 38.6768 122.012 39.0928 121.791C39.1757 121.754 39.2494 121.685 39.3052 121.591C39.4181 121.364 39.3052 121.039 39.1493 120.874C38.9934 120.709 38.7921 120.635 38.635 120.467C38.2889 120.097 38.2411 119.406 38.0582 118.853C37.9282 118.504 37.7679 118.179 37.5808 117.885C37.4452 117.633 37.2872 117.406 37.1107 117.21C36.7106 116.806 36.2516 116.814 35.7815 116.756C35.4501 116.715 35.1384 116.687 34.9003 117.1C34.6057 117.615 34.7235 118.647 34.742 119.248C34.7649 120.058 34.8331 120.864 34.9457 121.658Z" fill="#514E7F"/>
<path opacity="0.05" d="M34.9457 121.658C35.1678 121.766 35.4039 121.806 35.6379 121.775C35.6551 121.507 35.9128 121.447 36.1043 121.461C36.1969 121.456 36.2887 121.486 36.3706 121.546C36.4185 121.589 36.4553 121.651 36.5019 121.696C36.5851 121.76 36.6783 121.794 36.7732 121.794L37.7698 121.911C38.2141 121.964 38.6768 122.012 39.0928 121.791C39.1757 121.754 39.2494 121.685 39.3052 121.591C39.4181 121.364 39.3052 121.039 39.1493 120.874C38.9934 120.709 38.7921 120.635 38.635 120.467C38.2889 120.097 38.2411 119.406 38.0582 118.853C37.9282 118.504 37.7679 118.179 37.5808 117.885C37.4452 117.633 37.2872 117.406 37.1107 117.21C36.7106 116.806 36.2516 116.814 35.7815 116.756C35.4501 116.715 35.1384 116.687 34.9003 117.1C34.6057 117.615 34.7235 118.647 34.742 119.248C34.7649 120.058 34.8331 120.864 34.9457 121.658Z" fill="black"/>
<path d="M35.3483 94.5081C35.0439 94.6456 34.9114 95.1768 34.9678 95.6185C35.0243 96.0603 35.2133 96.4419 35.3691 96.8338C35.8134 97.9459 36.0049 99.2179 36.378 100.378C36.6566 101.238 37.0334 102.046 37.3083 102.915C37.5832 103.785 37.7538 104.767 37.5869 105.69C37.5059 106.138 37.3488 106.549 37.2445 106.991C37.1412 107.47 37.0738 107.962 37.0432 108.46C36.9081 110.153 36.8838 111.86 36.9708 113.559C36.9716 113.766 37.0025 113.971 37.0616 114.16C37.1242 114.332 37.2322 114.504 37.1844 114.676C37.1635 114.747 37.1181 114.798 37.096 114.867C37.0322 115.059 37.1598 115.264 37.2764 115.401C37.2556 115.453 37.2276 115.498 37.1941 115.535C37.1606 115.571 37.1222 115.598 37.0813 115.613C37.1649 115.687 37.2292 115.798 37.2645 115.927C37.2999 116.057 37.3045 116.199 37.2776 116.333C37.1745 116.355 37.1684 116.577 37.2335 116.694C37.2985 116.811 37.4016 116.883 37.4482 117.015C37.4757 117.123 37.4727 117.242 37.4398 117.347C37.407 117.451 37.3468 117.535 37.2715 117.579C37.1182 117.662 36.9509 117.68 36.7904 117.631C36.5182 117.578 36.2494 117.495 35.9865 117.383C35.849 117.346 35.7259 117.239 35.6398 117.085C35.5537 116.93 35.5103 116.737 35.5177 116.541C35.4569 115.841 35.4384 115.136 35.4624 114.432C35.5054 111.022 35.4624 107.608 35.3569 104.199C35.3139 102.824 35.0194 101.492 34.6401 100.227C34.4305 99.5804 34.1974 98.9493 33.9418 98.3361C33.3944 96.9335 32.9108 95.3796 33.036 93.7896C33.0495 93.6177 33.0937 93.4132 33.2152 93.3857C33.2627 93.3785 33.3107 93.3898 33.3539 93.4183C33.606 93.5832 33.85 93.7716 34.0841 93.9821C34.4689 94.2981 34.9027 94.4786 35.3483 94.5081Z" fill="#464353"/>
<path opacity="0.05" d="M35.3483 94.5081C35.0439 94.6456 34.9114 95.1768 34.9678 95.6185C35.0243 96.0603 35.2133 96.4419 35.3691 96.8338C35.8134 97.9459 36.0049 99.2179 36.378 100.378C36.6566 101.238 37.0334 102.046 37.3083 102.915C37.5832 103.785 37.7538 104.767 37.5869 105.69C37.5059 106.138 37.3488 106.549 37.2445 106.991C37.1412 107.47 37.0738 107.962 37.0432 108.46C36.9081 110.153 36.8838 111.86 36.9708 113.559C36.9716 113.766 37.0025 113.971 37.0616 114.16C37.1242 114.332 37.2322 114.504 37.1844 114.676C37.1635 114.747 37.1181 114.798 37.096 114.867C37.0322 115.059 37.1598 115.264 37.2764 115.401C37.2556 115.453 37.2276 115.498 37.1941 115.535C37.1606 115.571 37.1222 115.598 37.0813 115.613C37.1649 115.687 37.2292 115.798 37.2645 115.927C37.2999 116.057 37.3045 116.199 37.2776 116.333C37.1745 116.355 37.1684 116.577 37.2335 116.694C37.2985 116.811 37.4016 116.883 37.4482 117.015C37.4757 117.123 37.4727 117.242 37.4398 117.347C37.407 117.451 37.3468 117.535 37.2715 117.579C37.1182 117.662 36.9509 117.68 36.7904 117.631C36.5182 117.578 36.2494 117.495 35.9865 117.383C35.849 117.346 35.7259 117.239 35.6398 117.085C35.5537 116.93 35.5103 116.737 35.5177 116.541C35.4569 115.841 35.4384 115.136 35.4624 114.432C35.5054 111.022 35.4624 107.608 35.3569 104.199C35.3139 102.824 35.0194 101.492 34.6401 100.227C34.4305 99.5804 34.1974 98.9493 33.9418 98.3361C33.3944 96.9335 32.9108 95.3796 33.036 93.7896C33.0495 93.6177 33.0937 93.4132 33.2152 93.3857C33.2627 93.3785 33.3107 93.3898 33.3539 93.4183C33.606 93.5832 33.85 93.7716 34.0841 93.9821C34.4689 94.2981 34.9027 94.4786 35.3483 94.5081Z" fill="black"/>
<path d="M31.2331 90.3621C31.0744 90.2194 30.8913 90.1387 30.7029 90.1284C30.4844 90.1438 30.2978 90.3449 30.1272 90.5375C29.9251 90.7547 29.7332 90.9901 29.5529 91.2422C29.1793 91.7998 28.9191 92.4872 28.7991 93.2332C28.6791 93.9791 28.7037 94.7564 28.8705 95.4845C29.0509 96.2425 29.381 96.9111 29.7075 97.566L30.3703 98.8999C31.3816 100.933 32.3929 102.967 33.4521 104.952C33.4523 105.001 33.4636 105.048 33.4843 105.088C33.5051 105.127 33.5342 105.156 33.5674 105.17C33.6055 105.184 33.6534 105.183 33.6767 105.227C33.6875 105.255 33.6922 105.287 33.6902 105.318C33.6878 105.465 33.6679 105.61 33.6313 105.748C33.6141 105.793 33.6097 105.846 33.619 105.896C33.6534 106.008 33.7982 105.944 33.8448 106.049C33.8755 106.118 33.8375 106.207 33.797 106.265C33.7565 106.324 33.7061 106.389 33.7135 106.47C33.7209 106.551 33.8215 106.642 33.8178 106.742C33.8178 106.8 33.781 106.845 33.7552 106.891C33.7192 106.965 33.7027 107.054 33.7088 107.144C33.7148 107.233 33.743 107.316 33.7884 107.379C33.8583 108.349 33.4815 109.27 33.4067 110.236C33.2839 111.762 33.781 113.253 33.8411 114.784C33.8375 114.957 33.861 115.128 33.9099 115.286C34.0117 115.551 34.2781 115.711 34.2646 116.012C34.2453 116.135 34.2203 116.257 34.1897 116.376C34.1688 116.548 34.2277 116.72 34.2302 116.892C34.2327 117.064 34.1234 117.275 34.0081 117.206C34.0948 117.612 34.1721 118.021 34.24 118.434L36.5597 118.702C36.5847 118.41 36.5776 118.114 36.5388 117.825C36.4909 117.511 36.3903 117.218 36.3375 116.907C36.3032 116.754 36.2936 116.592 36.3093 116.433C36.325 116.274 36.3656 116.122 36.4283 115.988C36.3679 115.989 36.3091 115.96 36.2624 115.906C36.2157 115.852 36.1841 115.777 36.1731 115.694C36.1536 115.526 36.1557 115.355 36.1792 115.188C36.2406 114.341 35.9865 113.505 35.9939 112.655C36.0012 111.984 36.1694 111.34 36.2541 110.681C36.4357 109.272 36.2467 107.744 36.6947 106.456C36.9659 105.681 37.3415 104.822 37.0371 104.07C36.8874 103.699 36.6223 103.445 36.4492 103.094C36.3081 102.763 36.2023 102.404 36.135 102.03C35.7779 100.483 35.1998 99.046 34.6929 97.5747C34.5522 97.2058 34.4478 96.8121 34.3824 96.4041C34.3466 96.046 34.3334 95.6842 34.3431 95.3229C34.3431 94.6742 34.3148 94.0261 34.2584 93.3822C34.247 93.1002 34.1895 92.8255 34.0903 92.5795C33.9901 92.3934 33.8651 92.2363 33.7221 92.1171C32.9611 91.3866 32.0554 90.9689 31.2331 90.3621Z" fill="#464353"/>
<path d="M34.013 122.849C34.2357 122.956 34.472 122.995 34.7064 122.965C34.7236 122.696 34.9801 122.636 35.1716 122.65C35.2642 122.646 35.356 122.675 35.4379 122.736C35.4857 122.779 35.5226 122.843 35.5704 122.886C35.6534 122.95 35.7468 122.984 35.8417 122.984L36.837 123.1C37.2826 123.154 37.744 123.204 38.1613 122.98C38.2441 122.944 38.3175 122.875 38.3724 122.781C38.4853 122.554 38.3724 122.231 38.2166 122.066C38.0607 121.901 37.8594 121.825 37.7035 121.657C37.3562 121.287 37.3096 120.598 37.1255 120.044C36.9967 119.694 36.8366 119.368 36.6493 119.075C36.5133 118.823 36.3549 118.597 36.178 118.401C35.7791 117.995 35.3188 118.004 34.85 117.945C34.5174 117.904 34.2056 117.878 33.9688 118.289C33.6742 118.805 33.792 119.836 33.8092 120.44C33.8323 121.249 33.9004 122.055 34.013 122.849Z" fill="#514E7F"/>
<path d="M44.2943 84.7362C45.5632 84.7362 46.5918 83.2956 46.5918 81.5184C46.5918 79.7413 45.5632 78.3006 44.2943 78.3006C43.0254 78.3006 41.9967 79.7413 41.9967 81.5184C41.9967 83.2956 43.0254 84.7362 44.2943 84.7362Z" fill="#A1616A"/>
<path d="M42.1268 82.4741C41.7979 82.8712 41.3254 82.9004 40.8933 82.9623C39.9695 83.0952 39.0703 83.4597 38.2386 84.0383C38.1235 84.1078 38.0193 84.2082 37.9318 84.334C37.8571 84.4703 37.804 84.6274 37.7759 84.7946C37.6969 85.1566 37.6673 85.5363 37.6888 85.9136C37.7189 86.2796 37.794 86.6356 37.9109 86.9656C38.2298 87.8901 38.7219 88.6761 39.3346 89.2397C39.4426 89.3524 39.5651 89.4347 39.6955 89.4821C39.9974 89.5698 40.2895 89.3257 40.5877 89.2157C40.859 89.1166 41.1449 89.1291 41.4113 89.2517C41.6567 89.3686 41.9255 89.5818 42.1685 89.4391C42.3241 89.3173 42.445 89.1243 42.511 88.8925C42.7457 88.2713 42.9551 87.632 43.1381 86.9776C43.2039 86.7222 43.2797 86.472 43.3652 86.2282C43.6315 85.5183 44.0918 84.97 44.3213 84.2326C44.3446 84.1763 44.3586 84.1135 44.3625 84.0487C44.3663 83.9839 44.3598 83.9187 44.3434 83.8578C44.3008 83.7756 44.2419 83.7128 44.174 83.6773C43.8346 83.4052 43.5254 83.0653 43.2559 82.6683C43.105 82.4655 42.8276 81.9172 42.6104 81.8691C42.3661 81.8106 42.2925 82.2747 42.1268 82.4741Z" fill="#A1616A"/>
<path d="M42.1808 89.0128C41.9145 89.1846 41.6003 89.1107 41.3119 89.0265C40.5681 88.8082 39.8158 88.5882 39.1273 88.1378C38.9121 88.0225 38.7257 87.8218 38.5909 87.5603C38.5072 87.3366 38.4562 87.0917 38.4412 86.8401L38.3184 85.6368C38.2743 85.2191 38.3504 84.8324 38.3577 84.4095C38.3624 84.3627 38.3604 84.315 38.3517 84.2692C38.3431 84.2235 38.328 84.1806 38.3074 84.1431C38.2654 84.0937 38.2111 84.0696 38.1564 84.0761C37.8116 84.0846 37.6029 84.5917 37.3611 84.9355C37.2214 85.1339 37.0544 85.2906 36.8702 85.3962C36.6493 85.5234 36.3793 85.6128 36.2872 85.9222C36.2504 86.0511 36.2553 86.1972 36.216 86.3261C36.0614 86.8418 35.4023 86.6699 35.2342 87.1856C35.1863 87.3299 35.19 87.5104 35.1114 87.6239C35.0329 87.7373 34.8856 87.7356 34.7641 87.7631C34.2842 87.8731 34.0523 88.6483 33.6423 89.0145C33.2974 89.3239 32.8531 89.317 32.4813 89.5576C32.2751 89.6917 32.0922 89.9014 31.8737 89.9891C31.6553 90.0768 31.4086 90.0303 31.1742 90.0389C31.1492 90.0356 31.124 90.0396 31.1001 90.0505C31.0762 90.0615 31.0542 90.0792 31.0355 90.1025C31.0209 90.1336 31.0113 90.1688 31.0073 90.2056C31.0032 90.2423 31.0049 90.2799 31.0122 90.3157C31.1258 91.3321 31.4266 92.2895 31.8847 93.0936C32.3429 93.8978 32.9427 94.5209 33.6251 94.9017C33.7044 94.937 33.7796 94.9879 33.8485 95.053C34.0572 95.2713 34.094 95.7405 34.3309 95.8952C34.4163 95.9374 34.5085 95.9455 34.5971 95.9188C34.6857 95.8921 34.7673 95.8316 34.8328 95.744C34.9635 95.5678 35.0865 95.3806 35.201 95.1836C35.4173 94.8672 35.7012 94.6579 36.0098 94.5872C36.2946 94.5236 36.6125 94.57 36.8432 94.3242C36.9376 94.2028 37.0254 94.0718 37.1058 93.9323C37.2768 93.7089 37.4797 93.539 37.7011 93.4338C38.3061 93.099 38.9454 92.9023 39.5949 92.8511C40.1999 92.8046 40.8222 92.882 41.3941 92.607C41.5426 92.5425 41.6795 92.434 41.7955 92.289C41.9184 92.1027 42.0099 91.88 42.063 91.6375C42.2694 90.7931 42.31 89.8867 42.1808 89.0128Z" fill="#6C63FF"/>
<path d="M39.2193 84.2703C39.3886 84.248 39.5592 84.2703 39.7298 84.2703C39.9299 84.2703 40.1275 84.2016 40.3275 84.1999C40.6443 84.2071 40.9512 84.3559 41.2033 84.6246C41.4555 84.8934 41.6397 85.2679 41.7292 85.6936C41.746 85.7616 41.749 85.8348 41.7377 85.905C41.7311 85.9397 41.7159 85.9699 41.6947 85.9901C41.6735 86.0103 41.6478 86.0191 41.6224 86.015C41.556 85.7608 41.4691 85.518 41.3634 85.2914C41.1732 84.9277 40.9021 84.6628 40.5926 84.5385C40.2842 84.4161 39.9592 84.3996 39.6452 84.4904C39.5138 84.5247 39.3862 84.5729 39.2585 84.6227L38.6449 84.8599C38.532 84.9029 38.4178 84.9459 38.3086 85.0026C38.2239 85.0473 38.0791 85.2106 37.9956 85.2174C37.8827 85.2174 37.9735 85.0799 38.0239 84.9871C38.1241 84.7957 38.2643 84.6527 38.4252 84.578C38.6802 84.4317 38.9468 84.3284 39.2193 84.2703Z" fill="#6C63FF"/>
<path d="M40.7682 93.9357C40.9167 94.6027 41.0652 95.2713 41.2518 95.9194C41.5852 97.0463 42.0054 98.1189 42.5049 99.1182C42.8266 99.7764 43.1723 100.411 43.5407 101.019C44.001 101.781 44.5152 102.547 44.6797 103.519C44.7742 104.082 44.7423 104.669 44.7815 105.238C44.8208 105.806 44.9546 106.42 45.286 106.764C45.5241 107.008 45.8272 107.082 46.1181 107.147C46.3255 107.194 46.5857 107.209 46.6949 106.956C46.732 106.853 46.7517 106.739 46.7526 106.623L46.8017 105.782C46.8128 105.6 46.8594 105.368 46.9883 105.36C47.1172 105.351 47.1847 105.593 47.2951 105.703C47.4424 105.848 47.6633 105.703 47.7443 105.485C47.811 105.249 47.8154 104.987 47.7566 104.746C47.6668 104.268 47.5059 103.822 47.2845 103.436C47.063 103.051 46.786 102.736 46.4716 102.511C46.2527 102.388 46.0428 102.235 45.8444 102.056C45.6432 101.811 45.4766 101.515 45.3535 101.184C44.2133 98.5596 43.0682 95.9194 42.2655 93.0591C42.1072 92.5487 41.9998 92.0102 41.9464 91.4588C41.9084 90.8967 41.9697 90.3312 41.9967 89.7674C42.0443 88.7546 41.9772 87.7376 41.7979 86.7542C41.7588 86.4957 41.6891 86.2482 41.5917 86.0219C41.2616 85.3171 40.4871 85.214 39.9962 85.6987C39.8153 85.8934 39.6652 86.1386 39.5555 86.4189C39.4459 86.6991 39.379 87.0082 39.3592 87.3266C39.3236 87.8972 39.5593 88.4885 39.6771 89.0197C40.0396 90.6606 40.4033 92.2993 40.7682 93.9357Z" fill="#A1616A"/>
<path d="M47.6363 79.2426C47.6547 78.9744 47.4829 78.7269 47.2877 78.555C47.0822 78.4075 46.8848 78.2385 46.6974 78.0496C46.5231 77.8382 46.4274 77.5632 46.2531 77.3518C46.0549 77.1405 45.8301 76.9836 45.5903 76.8894C45.0803 76.639 44.5449 76.5049 44.0046 76.4923C43.4584 76.4923 42.9 76.6642 42.4889 77.0544C42.3874 77.1437 42.2998 77.2606 42.2311 77.3982C42.1663 77.5632 42.1246 77.7441 42.1084 77.931C42.0104 78.5078 41.8778 79.0718 41.712 79.6173C41.5414 80.224 41.3597 80.8532 40.9584 81.3224C40.5288 81.8226 39.8722 82.1114 39.5887 82.7165C39.5573 82.7702 39.5353 82.8335 39.5245 82.9012C39.5136 82.9689 39.5142 83.0393 39.5261 83.1067C39.5666 83.2596 39.6967 83.3645 39.817 83.4607C40.5141 84.0211 41.1155 84.7482 41.4248 85.6163C41.734 86.4843 41.7255 87.507 41.2848 88.3063C41.1228 88.602 40.8995 88.9526 41.0578 89.25C41.3033 89.7021 42.1243 89.4425 42.3158 89.9204C42.3759 90.0734 42.3404 90.247 42.3404 90.4137C42.3404 90.9156 42.6852 91.3608 43.1038 91.5929C43.5223 91.8249 44.0071 91.8799 44.4784 91.9092C44.6035 91.5153 44.6158 91.0692 44.5127 90.663C44.4813 90.5753 44.469 90.4767 44.4771 90.3793C44.5123 90.2712 44.5668 90.1776 44.6355 90.1078C45.1387 89.4408 45.0319 88.461 44.73 87.6686C44.428 86.8762 43.9567 86.1525 43.7812 85.3189C43.6941 84.9046 43.6941 84.4388 43.9285 84.095C44.0631 83.9297 44.2081 83.7818 44.3618 83.6533C44.6363 83.3923 44.8477 83.0206 44.9681 82.5875C45.1092 82.0392 45.0908 81.3843 45.5007 81.0147C45.8947 80.671 46.4482 80.7707 46.8839 80.5352C47.219 80.3495 47.6093 79.6362 47.6363 79.2426Z" fill="#464353"/>
<path d="M71.4342 106.176C69.5625 105.091 69.0127 104.308 69.0127 102.738C69.0127 101.535 69.3907 100.146 71.0476 100.146C71.9635 100.127 72.8632 100.486 73.6348 101.177L74.1736 99.1818C73.5489 98.6662 72.6677 98.1866 71.3765 98.1264V95.2043H70.2879V98.2467C68.3082 98.6988 67.1619 100.596 67.1619 103.098C67.1619 105.719 68.2665 107.106 70.4658 108.311C72.0589 109.22 72.8923 110.245 72.8923 111.902C72.8923 113.621 71.8601 114.855 70.3321 114.855C69.128 114.855 67.7633 114.282 66.9888 113.559L66.4721 115.577C67.2257 116.331 68.5168 116.873 69.7638 116.904V119.946H71.6158V116.813C73.825 116.297 75.0143 114.062 75.0143 111.69C75.0143 109.009 73.6507 107.441 71.4342 106.176Z" fill="url(#paint1_linear_9_16)"/>
<path d="M69.7687 119.259V116.216C68.5217 116.185 67.2306 115.644 66.477 114.889L66.9937 112.871C67.7681 113.595 69.1329 114.167 70.3369 114.167C71.865 114.167 72.8922 112.933 72.8922 111.214C72.8922 109.557 72.054 108.533 70.4609 107.629C68.2664 106.425 67.1569 105.036 67.1569 102.415C67.1569 99.9141 68.3033 98.0164 70.2829 97.5643V94.5219H71.3716V97.444C72.6627 97.5042 73.544 97.9855 74.1687 98.4994L73.6299 100.486C72.8583 99.7949 71.9586 99.4363 71.0427 99.4551C69.3858 99.4551 69.0077 100.842 69.0077 102.047C69.0077 103.613 69.5576 104.397 71.4293 105.485C73.6458 106.75 75.0094 108.318 75.0094 110.999C75.0094 113.38 73.8262 115.609 71.6109 116.122V119.259H69.7687Z" fill="#6C63FF"/>
</g>
<defs>
<linearGradient id="paint0_linear_9_16" x1="37.5329" y1="73.6527" x2="37.5329" y2="40.8388" gradientUnits="userSpaceOnUse">
<stop stop-color="#808080" stop-opacity="0.25"/>
<stop offset="0.54" stop-color="#808080" stop-opacity="0.12"/>
<stop offset="1" stop-color="#808080" stop-opacity="0.1"/>
</linearGradient>
<linearGradient id="paint1_linear_9_16" x1="66.477" y1="107.577" x2="75.0143" y2="107.577" gradientUnits="userSpaceOnUse">
<stop stop-color="#808080" stop-opacity="0.25"/>
<stop offset="0.54" stop-color="#808080" stop-opacity="0.12"/>
<stop offset="1" stop-color="#808080" stop-opacity="0.1"/>
</linearGradient>
<clipPath id="clip0_9_16">
<rect width="144.557" height="124.648" fill="white" transform="translate(0 0.588898)"/>
</clipPath>
</defs>
</svg>
