<svg width="116" height="128" viewBox="0 0 116 128" fill="none" xmlns="http://www.w3.org/2000/svg">
<path d="M110.285 119.817C109.57 120.065 108.801 120.127 108.054 119.997C107.307 119.868 106.606 119.551 106.02 119.078C104.525 117.843 104.056 115.809 103.676 113.926L102.549 108.356L104.909 109.956C106.606 111.106 108.342 112.294 109.517 113.96C110.692 115.627 111.205 117.902 110.261 119.705" fill="#E6E6E6"/>
<path d="M110.084 126.561C110.322 124.848 110.568 123.113 110.401 121.382C110.252 119.844 109.775 118.342 108.805 117.111C108.29 116.459 107.663 115.9 106.953 115.459C106.768 115.344 106.598 115.633 106.782 115.748C108.011 116.512 108.961 117.641 109.496 118.971C110.087 120.45 110.182 122.063 110.079 123.635C110.018 124.585 109.887 125.529 109.756 126.472C109.745 126.515 109.751 126.56 109.773 126.598C109.795 126.636 109.831 126.665 109.874 126.677C109.917 126.689 109.964 126.683 110.003 126.661C110.042 126.64 110.071 126.603 110.083 126.561L110.084 126.561Z" fill="#F2F2F2"/>
<path d="M101.529 98.1097H2.78479V0.905762H101.529V98.1097Z" fill="white"/>
<path d="M101.529 98.1097H2.78479V0.905762H101.529V98.1097ZM4.24372 96.6735H100.07V2.34194H4.24372V96.6735Z" fill="#E5E5E5"/>
<path d="M84.0364 16.1134H41.2759V17.4246H84.0364V16.1134Z" fill="#E5E5E5"/>
<path d="M84.0364 19.5226H41.2759V20.8339H84.0364V19.5226Z" fill="#E5E5E5"/>
<path d="M84.0364 22.9318H41.2759V24.243H84.0364V22.9318Z" fill="#E5E5E5"/>
<path d="M84.0364 45.3875H41.2759V46.6987H84.0364V45.3875Z" fill="#E5E5E5"/>
<path d="M84.0364 48.7966H41.2759V50.1079H84.0364V48.7966Z" fill="#E5E5E5"/>
<path d="M84.0364 52.2058H41.2759V53.517H84.0364V52.2058Z" fill="#E5E5E5"/>
<path d="M84.0364 74.6615H41.2759V75.9727H84.0364V74.6615Z" fill="#E5E5E5"/>
<path d="M84.0364 78.0707H41.2759V79.3819H84.0364V78.0707Z" fill="#E5E5E5"/>
<path d="M84.0364 81.4799H41.2759V82.7911H84.0364V81.4799Z" fill="#E5E5E5"/>
<path d="M24.1578 26.5605C23.4273 26.1815 22.6648 25.8657 21.8789 25.6164L21.7787 24.5251L17.7144 24.0941L17.1978 25.4889L15.7392 26.0277C15.687 26.0472 15.6373 26.0727 15.5912 26.1036H15.5896C15.5082 26.1578 15.4389 26.2277 15.3859 26.3091C15.3329 26.3906 15.2973 26.4818 15.2812 26.5772C15.2657 26.6721 15.2694 26.7691 15.2921 26.8625L15.3692 27.1737C15.4802 27.239 15.5943 27.3012 15.7084 27.3604L15.7809 27.3968C15.9474 27.4818 16.117 27.5622 16.2912 27.6366C16.3267 27.6518 16.3652 27.667 16.4007 27.6822C16.4038 27.6837 16.4053 27.6837 16.4084 27.6852C16.4901 27.7186 16.5718 27.7505 16.6551 27.7808C16.9286 27.8836 17.2076 27.9718 17.4908 28.0449C18.2136 28.2345 18.9584 28.3305 19.7064 28.3303C19.9794 28.3303 20.2492 28.3181 20.5159 28.2923C21.1254 28.2369 21.7271 28.1174 22.3107 27.9356C22.3122 27.9356 22.3138 27.9341 22.3153 27.9341C22.6839 27.8185 23.044 27.678 23.3931 27.5137C23.3946 27.5122 23.3977 27.5122 23.3992 27.5107C23.4778 27.4742 23.5534 27.4348 23.6305 27.3968L23.6675 27.3786C23.7291 27.3467 23.7909 27.3148 23.8525 27.2815C24.0067 27.198 24.1578 27.1099 24.3073 27.0158C24.349 26.9915 24.3891 26.9657 24.4307 26.9384C24.4893 26.9005 24.5479 26.861 24.605 26.82C24.4615 26.729 24.312 26.6425 24.1578 26.5605Z" fill="#3F3D56"/>
<path d="M16.5302 27.2329L16.2758 26.1021H15.6112C15.6045 26.1022 15.5978 26.1027 15.5912 26.1036H15.5896C15.3508 26.1235 15.1208 26.2018 14.9205 26.3313C14.7846 26.4167 14.6638 26.5233 14.5628 26.647C14.7601 26.7942 14.9652 26.9308 15.1765 27.0614L15.1857 27.0659C15.2458 27.1023 15.3075 27.1388 15.3692 27.1737C15.4802 27.2389 15.5943 27.3012 15.7084 27.3604L15.7809 27.3968C15.9474 27.4818 16.117 27.5622 16.2912 27.6366C16.3267 27.6518 16.3652 27.667 16.4007 27.6821C16.4038 27.6837 16.4053 27.6837 16.4084 27.6852C16.4901 27.7186 16.5718 27.7505 16.6551 27.7808L16.5302 27.2329Z" fill="#3F3D56"/>
<path d="M19.587 23.4041C21.2037 23.4041 22.5142 22.114 22.5142 20.5226C22.5142 18.9311 21.2037 17.6411 19.587 17.6411C17.9704 17.6411 16.6599 18.9311 16.6599 20.5226C16.6599 22.114 17.9704 23.4041 19.587 23.4041Z" fill="#FFB8B8"/>
<path d="M17.6218 19.119C17.9248 19.472 18.4376 19.5716 18.9106 19.6125C20.0166 19.6726 21.1257 19.5835 22.2071 19.3475C22.2741 19.9868 22.0914 20.6762 22.474 21.2021C22.6533 20.5654 22.7576 19.9105 22.7847 19.2503C22.8133 18.9671 22.7757 18.6811 22.6749 18.4144C22.621 18.2807 22.5301 18.1646 22.4124 18.0792C22.2948 17.9938 22.1553 17.9427 22.0096 17.9315C22.2277 17.7687 22.4831 17.6612 22.7534 17.6185L21.8239 17.1587L22.0626 16.9175L20.3799 16.8161L20.8673 16.5113C20.1338 16.4121 19.3917 16.3891 18.6532 16.4425C18.3082 16.4427 17.9696 16.5353 17.674 16.7105C17.3961 16.9061 17.2356 17.2948 17.4081 17.5819C17.1922 17.6168 16.9888 17.7054 16.8174 17.8393C16.646 17.9732 16.5121 18.148 16.4285 18.347C16.3228 18.6634 16.2973 19.0005 16.3542 19.3289C16.4176 19.8557 16.5419 20.3736 16.7249 20.8727L17.6218 19.119Z" fill="#2F2E41"/>
<path d="M27.8182 17.399C27.4075 16.2375 26.7444 15.1782 25.8751 14.295C25.0058 13.4117 23.9512 12.7258 22.7849 12.285C21.6187 11.8441 20.3687 11.6591 19.1223 11.7426C17.8759 11.8262 16.663 12.1764 15.5682 12.7688C14.4734 13.3613 13.5231 14.1816 12.7835 15.1728C12.0439 16.1639 11.5328 17.3019 11.2858 18.5074C11.0389 19.713 11.0621 20.957 11.3538 22.1529C11.6455 23.3487 12.1986 24.4675 12.9747 25.4312C13.0518 25.5268 13.1319 25.6225 13.2137 25.7151C13.2199 25.7211 13.2245 25.7272 13.2306 25.7333C13.4316 25.9612 13.6452 26.1781 13.8705 26.3829C13.9291 26.436 13.9908 26.4907 14.0525 26.5423C14.1696 26.6455 14.2899 26.7441 14.4148 26.8382C14.4641 26.8762 14.5119 26.9141 14.5628 26.9506C14.7601 27.0978 14.9652 27.2344 15.1765 27.3649L15.1857 27.3695C15.2458 27.4059 15.3076 27.4423 15.3692 27.4772C15.4802 27.5425 15.5943 27.6047 15.7084 27.6639L15.7809 27.7004C15.9474 27.7854 16.117 27.8658 16.2913 27.9402C16.3267 27.9554 16.3653 27.9705 16.4007 27.9857C16.4038 27.9872 16.4053 27.9872 16.4084 27.9887C16.4902 28.0221 16.5718 28.054 16.6551 28.0844C16.9286 28.1872 17.2076 28.2754 17.4908 28.3485C18.2136 28.5381 18.9584 28.634 19.7065 28.6338C19.9794 28.6338 20.2492 28.6217 20.516 28.5959C21.1254 28.5405 21.7271 28.4209 22.3107 28.2392C22.3122 28.2392 22.3138 28.2377 22.3153 28.2377C22.6839 28.1221 23.0441 27.9816 23.3931 27.8172C23.3946 27.8157 23.3977 27.8157 23.3993 27.8142C23.4779 27.7778 23.5535 27.7383 23.6306 27.7004L23.6675 27.6821C23.7292 27.6503 23.7909 27.6184 23.8526 27.585C24.0068 27.5015 24.1579 27.4135 24.3074 27.3194C24.349 27.2951 24.3891 27.2693 24.4308 27.242C24.4893 27.204 24.5479 27.1646 24.605 27.1236C24.6805 27.072 24.7561 27.0189 24.8301 26.9642C24.8532 26.9475 24.8779 26.9308 24.901 26.9126C26.3455 25.8333 27.4058 24.3314 27.9299 22.6224C28.4539 20.9133 28.4148 19.0848 27.8182 17.399ZM24.6173 26.5438C24.5664 26.5832 24.514 26.6212 24.4616 26.6561C24.4107 26.694 24.3599 26.7305 24.3074 26.7639C24.2627 26.7957 24.2179 26.8261 24.1717 26.8549L24.1579 26.864C24.1239 26.8868 24.09 26.908 24.0561 26.9293C23.9281 27.0082 23.7986 27.0841 23.6675 27.157L23.6259 27.1797C23.5673 27.2116 23.5087 27.242 23.4502 27.2723C23.4424 27.2769 23.4332 27.2799 23.4255 27.2845L23.4162 27.289C23.3422 27.327 23.2666 27.3634 23.1911 27.3983C22.8996 27.5365 22.5993 27.6562 22.2922 27.7565C22.2521 27.7702 22.212 27.7838 22.172 27.796C21.6196 27.9689 21.0499 28.0829 20.4728 28.136C20.2199 28.1587 19.964 28.1709 19.7065 28.1709C18.999 28.1723 18.2944 28.0815 17.6111 27.9007C17.2604 27.8106 16.9168 27.696 16.5827 27.5577C16.5657 27.5501 16.5472 27.544 16.5302 27.5364C16.5118 27.5289 16.4948 27.5228 16.4778 27.5152C16.4593 27.5076 16.4424 27.5 16.4238 27.4909C16.2789 27.4287 16.1355 27.3604 15.9952 27.289L15.9274 27.2541C15.7562 27.1661 15.5882 27.072 15.4247 26.9718C15.3769 26.943 15.3276 26.9126 15.2813 26.8807C15.269 26.8731 15.2582 26.8656 15.2458 26.858C15.1364 26.7866 15.0269 26.7123 14.9205 26.6348C14.8481 26.5817 14.7756 26.5286 14.7047 26.474C14.5859 26.3859 14.4718 26.2918 14.3608 26.1947C14.3023 26.1461 14.2452 26.093 14.1897 26.0429C13.9711 25.8442 13.7641 25.6334 13.5699 25.4115C13.5051 25.3386 13.4419 25.2658 13.3817 25.1899C13.3681 25.1749 13.3552 25.1592 13.3432 25.1428C12.3414 23.8984 11.7388 22.3885 11.6123 20.8055C11.4858 19.2226 11.8411 17.6385 12.6329 16.2552C13.4247 14.8718 14.6171 13.752 16.0581 13.0385C17.499 12.325 19.1232 12.0501 20.7235 12.249C22.3238 12.4478 23.8276 13.1114 25.0432 14.155C26.2588 15.1986 27.1312 16.575 27.5489 18.1086C27.9667 19.6423 27.9109 21.2636 27.3888 22.7659C26.8667 24.2683 25.9019 25.5834 24.6173 26.5438Z" fill="#3F3D56"/>
<path d="M27.8183 46.6731C27.4076 45.5117 26.7445 44.4524 25.8752 43.5691C25.0059 42.6859 23.9513 41.9999 22.785 41.5591C21.6187 41.1183 20.3688 40.9332 19.1224 41.0168C17.876 41.1004 16.6631 41.4506 15.5683 42.043C14.4735 42.6354 13.5232 43.4558 12.7836 44.4469C12.044 45.438 11.5329 46.5761 11.2859 47.7816C11.039 48.9871 11.0622 50.2312 11.3539 51.427C11.6456 52.6228 12.1987 53.7416 12.9747 54.7054C13.0518 54.801 13.132 54.8966 13.2137 54.9892C13.2199 54.9953 13.2245 55.0014 13.2306 55.0074C13.4317 55.2354 13.6453 55.4522 13.8706 55.657C13.9291 55.7102 13.9908 55.7648 14.0525 55.8164C14.1697 55.9196 14.2899 56.0183 14.4148 56.1124C14.6587 56.3016 14.913 56.4774 15.1765 56.6391L15.1858 56.6436C15.3569 56.7484 15.5311 56.8455 15.7085 56.9381L15.7809 56.9745C15.9474 57.0595 16.1171 57.14 16.2913 57.2143C16.3267 57.2295 16.3653 57.2447 16.4007 57.2599C16.4038 57.2614 16.4054 57.2614 16.4085 57.2629C16.7605 57.407 17.1222 57.5272 17.4909 57.6226C18.2136 57.8123 18.9585 57.9082 19.7065 57.908C19.9794 57.908 20.2492 57.8958 20.516 57.87C21.1254 57.8146 21.7271 57.6951 22.3107 57.5133C22.3123 57.5133 22.3138 57.5118 22.3153 57.5118C22.684 57.3962 23.0441 57.2557 23.3931 57.0914C23.3946 57.0899 23.3978 57.0899 23.3993 57.0883C23.4779 57.0519 23.5535 57.0125 23.6306 56.9745L23.6676 56.9563C23.7293 56.9244 23.7909 56.8925 23.8526 56.8591C24.0068 56.7757 24.1579 56.6876 24.3075 56.5935C24.3491 56.5692 24.3891 56.5434 24.4308 56.5161C24.5664 56.4281 24.7006 56.334 24.8301 56.2384C24.8533 56.2217 24.8779 56.205 24.9011 56.1868C26.3456 55.1074 27.4058 53.6055 27.9299 51.8965C28.4539 50.1875 28.4149 48.359 27.8183 46.6731Z" fill="white"/>
<path d="M22.541 52.9378C23.252 52.9378 23.8283 52.3705 23.8283 51.6706C23.8283 50.9707 23.252 50.4034 22.541 50.4034C21.83 50.4034 21.2537 50.9707 21.2537 51.6706C21.2537 52.3705 21.83 52.9378 22.541 52.9378Z" fill="#2F2E41"/>
<path d="M22.8996 50.4383C23.1224 50.4383 23.3414 50.4952 23.5352 50.6035C23.7289 50.7118 23.8908 50.8677 24.005 51.056C24.1192 51.2443 24.1819 51.4586 24.1867 51.6779C24.1916 51.8972 24.1386 52.114 24.0329 52.307C24.1445 52.1696 24.2257 52.0107 24.2715 51.8406C24.3173 51.6706 24.3266 51.493 24.2988 51.3191C24.271 51.1453 24.2067 50.9791 24.11 50.8311C24.0134 50.6831 23.8865 50.5565 23.7374 50.4595C23.5883 50.3624 23.4203 50.297 23.2441 50.2674C23.0679 50.2377 22.8874 50.2446 22.7141 50.2874C22.5407 50.3302 22.3783 50.4082 22.2372 50.5162C22.0961 50.6242 21.9795 50.76 21.8946 50.9149C22.015 50.7661 22.1678 50.646 22.3419 50.5635C22.5159 50.481 22.7065 50.4382 22.8996 50.4383Z" fill="#2F2E41"/>
<path d="M20.1354 51.6678C22.2239 51.6678 23.917 50.0012 23.917 47.9452C23.917 45.8893 22.2239 44.2227 20.1354 44.2227C18.0469 44.2227 16.3538 45.8893 16.3538 47.9452C16.3538 50.0012 18.0469 51.6678 20.1354 51.6678Z" fill="#2F2E41"/>
<path d="M17.1675 45.6356C17.8191 44.9142 18.7299 44.4703 19.7077 44.3974C20.6855 44.3246 21.6538 44.6286 22.4083 45.2452C22.3774 45.2162 22.3466 45.1871 22.3147 45.159C21.5676 44.5002 20.5854 44.1606 19.584 44.2147C18.5825 44.2689 17.644 44.7124 16.9747 45.4478C16.3055 46.1832 15.9605 47.1501 16.0155 48.1359C16.0705 49.1217 16.5211 50.0456 17.2681 50.7044C17.2753 50.7107 17.2825 50.717 17.2897 50.7233C17.3218 50.7514 17.3548 50.7779 17.3876 50.8048C16.6772 50.1395 16.2571 49.2284 16.216 48.264C16.175 47.2995 16.516 46.3571 17.1675 45.6356Z" fill="#2F2E41"/>
<path d="M20.1033 51.6363C21.4484 51.6363 22.5388 50.5628 22.5388 49.2387C22.5388 47.9146 21.4484 46.8412 20.1033 46.8412C18.7582 46.8412 17.6678 47.9146 17.6678 49.2387C17.6678 50.5628 18.7582 51.6363 20.1033 51.6363Z" fill="#A0616A"/>
<path d="M24.4616 55.4856V56.29C24.3121 56.3841 24.161 56.4722 24.0068 56.5556C23.9451 56.589 23.8835 56.6209 23.8218 56.6528L23.7847 56.671C23.7077 56.7089 23.6321 56.7484 23.5535 56.7848C23.552 56.7864 23.5488 56.7864 23.5473 56.7879C23.1983 56.9522 22.8381 57.0927 22.4695 57.2083C22.468 57.2083 22.4665 57.2098 22.4649 57.2098C21.8813 57.3915 21.2796 57.5111 20.6702 57.5665C20.4034 57.5923 20.1336 57.6044 19.8607 57.6044C19.1127 57.6047 18.3678 57.5087 17.6451 57.3191C17.2763 57.2237 16.9147 57.1035 16.5627 56.9594C16.5596 56.9579 16.558 56.9579 16.5549 56.9563C16.5195 56.9412 16.4809 56.926 16.4454 56.9108C16.2712 56.8364 16.1016 56.756 15.9351 56.671L15.8627 56.6346C15.6853 56.542 15.5111 56.4448 15.3399 56.3401L15.3307 56.3356C15.0672 56.1739 14.8129 55.9981 14.569 55.8089C14.4441 55.7148 14.3239 55.6161 14.2067 55.5129C14.145 55.4613 14.0833 55.4067 14.0248 55.3535C13.7995 55.1487 13.5859 54.9319 13.3848 54.7039C13.4115 54.5458 13.4507 54.39 13.5021 54.2379L13.5036 54.2364C13.5128 54.2105 13.5236 54.1852 13.5359 54.1605C13.5444 54.1387 13.5542 54.1175 13.5652 54.0968C13.8412 53.5883 14.3408 53.4623 14.9606 53.435C15.3107 53.4198 15.6976 53.4365 16.1063 53.432C16.3221 53.4305 16.5457 53.4229 16.7693 53.4031C18.1801 53.2772 17.9242 52.4575 17.9873 52.0159C18.0506 51.5878 18.4422 51.9582 18.4684 51.9825L18.4699 51.984C19.2683 52.3518 20.1516 52.5042 21.0294 52.4257C21.1805 52.4075 21.3316 52.3968 21.4827 52.3923C21.8805 52.3877 21.7942 52.5 21.657 52.5926C21.5904 52.6358 21.5209 52.6743 21.4488 52.708C21.4488 52.708 21.3856 53.0874 21.3209 53.6551C21.2592 54.1985 22.3169 54.4535 22.4048 54.4732C22.4066 54.4744 22.4088 54.4749 22.4109 54.4747C22.7972 54.3761 23.2039 54.3866 23.5844 54.5051H23.5859C23.8032 54.5838 23.9972 54.7147 24.1502 54.8859C24.3031 55.0571 24.4102 55.2633 24.4616 55.4856Z" fill="#6C63FF"/>
<path d="M16.578 56.4616C16.578 56.5739 16.575 56.6817 16.5703 56.7834C16.5688 56.8441 16.5657 56.9033 16.5627 56.9594C16.5596 56.9579 16.558 56.9579 16.5549 56.9564C16.5194 56.9412 16.4809 56.926 16.4454 56.9108C16.2712 56.8365 16.1016 56.756 15.9351 56.671L15.8626 56.6346C15.6853 56.542 15.5111 56.4449 15.3399 56.3402C15.3445 56.287 15.3523 56.2339 15.36 56.1808C15.3769 56.0639 15.3908 55.9455 15.4001 55.8286C15.4607 55.0076 15.3095 54.1847 14.9606 53.4366V53.4351C14.9298 53.3743 14.9113 53.3409 14.9113 53.3409C14.9113 53.3409 15.3599 52.9615 15.9998 53.3409C16.0407 53.3646 16.0768 53.3955 16.1063 53.432C16.4917 53.8798 16.5965 55.3854 16.578 56.4616Z" fill="#2F2E41"/>
<path d="M23.5796 56.255C23.5734 56.425 23.5642 56.6026 23.5534 56.7832V56.7847C23.5519 56.7862 23.5487 56.7862 23.5472 56.7877C23.1982 56.9521 22.8381 57.0926 22.4694 57.2082C22.4679 57.2082 22.4664 57.2097 22.4648 57.2097L22.4479 56.7832L22.4463 56.727L22.3646 54.6507C22.3624 54.6036 22.37 54.5567 22.3867 54.5126C22.4035 54.4686 22.4291 54.4283 22.4621 54.3943C22.4951 54.3602 22.5348 54.3331 22.5787 54.3146C22.6226 54.296 22.6699 54.2864 22.7177 54.2864H23.4994C23.538 54.2864 23.5658 54.3638 23.5843 54.5034V54.5049C23.6222 55.0877 23.6206 55.6724 23.5796 56.255Z" fill="#2F2E41"/>
<path d="M18.0202 46.2418V48.64H18.5842L19.302 47.8829L19.2059 48.64H21.6991L21.5449 47.8829L21.8533 48.64H22.2508V46.2418H18.0202Z" fill="#2F2E41"/>
<path d="M17.6357 49.081C17.7419 49.081 17.828 48.9257 17.828 48.7341C17.828 48.5424 17.7419 48.3871 17.6357 48.3871C17.5295 48.3871 17.4435 48.5424 17.4435 48.7341C17.4435 48.9257 17.5295 49.081 17.6357 49.081Z" fill="#A0616A"/>
<path d="M22.5711 49.081C22.6773 49.081 22.7634 48.9257 22.7634 48.7341C22.7634 48.5424 22.6773 48.3871 22.5711 48.3871C22.4649 48.3871 22.3788 48.5424 22.3788 48.7341C22.3788 48.9257 22.4649 49.081 22.5711 49.081Z" fill="#A0616A"/>
<path d="M24.9843 55.9347C24.8548 56.0303 24.7206 56.1244 24.5849 56.2124C24.5433 56.2398 24.5033 56.2656 24.4616 56.2899C24.312 56.384 24.1609 56.472 24.0067 56.5555C23.9451 56.5889 23.8834 56.6207 23.8218 56.6526V54.98C23.8218 54.98 24.0684 55.1743 24.4616 55.4976C24.5109 55.5385 24.5618 55.581 24.6158 55.6266C24.7299 55.7207 24.8533 55.8239 24.9843 55.9347Z" fill="#6C63FF"/>
<path d="M27.8183 46.6731C27.4076 45.5117 26.7445 44.4524 25.8752 43.5691C25.0059 42.6859 23.9513 41.9999 22.785 41.5591C21.6187 41.1183 20.3688 40.9332 19.1224 41.0168C17.876 41.1004 16.6631 41.4506 15.5683 42.043C14.4735 42.6354 13.5232 43.4558 12.7836 44.4469C12.044 45.438 11.5329 46.5761 11.2859 47.7816C11.039 48.9871 11.0622 50.2312 11.3539 51.427C11.6456 52.6228 12.1987 53.7416 12.9747 54.7054C13.0518 54.801 13.132 54.8966 13.2137 54.9892C13.2199 54.9953 13.2245 55.0014 13.2306 55.0074C13.4317 55.2354 13.6453 55.4522 13.8706 55.657C13.9291 55.7102 13.9908 55.7648 14.0525 55.8164C14.1697 55.9196 14.2899 56.0183 14.4148 56.1124C14.6587 56.3016 14.913 56.4774 15.1765 56.6391L15.1858 56.6436C15.3569 56.7484 15.5311 56.8455 15.7085 56.9381L15.7809 56.9745C15.9474 57.0595 16.1171 57.14 16.2913 57.2143C16.3267 57.2295 16.3653 57.2447 16.4007 57.2599C16.4038 57.2614 16.4054 57.2614 16.4085 57.2629C16.7605 57.407 17.1222 57.5272 17.4909 57.6226C18.2136 57.8123 18.9585 57.9082 19.7065 57.908C19.9794 57.908 20.2492 57.8958 20.516 57.87C21.1254 57.8146 21.7271 57.6951 22.3107 57.5133C22.3123 57.5133 22.3138 57.5118 22.3153 57.5118C22.684 57.3962 23.0441 57.2557 23.3931 57.0914C23.3946 57.0899 23.3978 57.0899 23.3993 57.0883C23.4779 57.0519 23.5535 57.0125 23.6306 56.9745L23.6676 56.9563C23.7293 56.9244 23.7909 56.8925 23.8526 56.8591C24.0068 56.7757 24.1579 56.6876 24.3075 56.5935C24.3491 56.5692 24.3891 56.5434 24.4308 56.5161C24.5664 56.4281 24.7006 56.334 24.8301 56.2384C24.8533 56.2217 24.8779 56.205 24.9011 56.1868C26.3456 55.1074 27.4058 53.6055 27.9299 51.8965C28.4539 50.1875 28.4149 48.359 27.8183 46.6731ZM24.6173 55.8179C24.5664 55.8574 24.514 55.8953 24.4617 55.9303C24.4108 55.9682 24.3599 56.0046 24.3075 56.038C24.2627 56.0699 24.218 56.1002 24.1717 56.1291C24.1332 56.1549 24.0946 56.1792 24.0561 56.2035C23.9282 56.2824 23.7987 56.3583 23.6676 56.4311L23.6259 56.4539C23.5673 56.4858 23.5087 56.5161 23.4502 56.5465C23.4424 56.551 23.4332 56.5541 23.4255 56.5586L23.4162 56.5632C23.3422 56.6011 23.2667 56.6375 23.1911 56.6725C22.8996 56.8107 22.5993 56.9303 22.2922 57.0307C22.2522 57.0443 22.212 57.058 22.172 57.0701C21.6196 57.2431 21.0499 57.357 20.4728 57.4101C20.2199 57.4329 19.964 57.445 19.7065 57.445C18.999 57.4465 18.2944 57.3556 17.6111 57.1749C17.2604 57.0848 16.9168 56.9701 16.5827 56.8318C16.5472 56.8182 16.5118 56.803 16.4778 56.7893C16.4594 56.7817 16.4424 56.7742 16.4238 56.765C16.2789 56.7028 16.1356 56.6345 15.9952 56.5632L15.9274 56.5283C15.7563 56.4402 15.5882 56.3461 15.4247 56.246C15.3646 56.2095 15.3045 56.1716 15.2459 56.1321C15.0609 56.0122 14.8805 55.8832 14.7047 55.7481C14.586 55.6601 14.4719 55.566 14.3608 55.4688C14.3023 55.4203 14.2452 55.3671 14.1897 55.317C13.9711 55.1183 13.7642 54.9075 13.5699 54.6856C13.5051 54.6128 13.4419 54.5399 13.3817 54.464C13.3681 54.449 13.3552 54.4333 13.3432 54.417C12.3414 53.1726 11.7388 51.6626 11.6123 50.0797C11.4858 48.4968 11.8411 46.9126 12.6329 45.5293C13.4247 44.146 14.6172 43.0262 16.0581 42.3126C17.499 41.5991 19.1232 41.3243 20.7235 41.5231C22.3238 41.722 23.8276 42.3855 25.0432 43.4291C26.2589 44.4728 27.1312 45.8492 27.5489 47.3828C27.9667 48.9164 27.9109 50.5378 27.3888 52.0401C26.8667 53.5424 25.9019 54.8576 24.6173 55.8179Z" fill="#3F3D56"/>
<path d="M19.755 82.5268C21.6136 82.5268 23.1203 81.0436 23.1203 79.214C23.1203 77.3843 21.6136 75.9011 19.755 75.9011C17.8964 75.9011 16.3896 77.3843 16.3896 79.214C16.3896 81.0436 17.8964 82.5268 19.755 82.5268Z" fill="#2F2E41"/>
<path d="M17.1281 77.4278C17.6719 76.8925 17.7821 76.133 17.3743 75.7315C16.9664 75.33 16.1949 75.4385 15.6511 75.9738C15.1072 76.5092 14.997 77.2687 15.4049 77.6702C15.8128 78.0717 16.5843 77.9632 17.1281 77.4278Z" fill="#2F2E41"/>
<path d="M23.2626 76.3758C23.4892 75.8536 23.0995 75.1892 22.3922 74.8918C21.685 74.5944 20.9279 74.7766 20.7013 75.2988C20.4747 75.821 20.8644 76.4854 21.5717 76.7828C22.2789 77.0802 23.036 76.898 23.2626 76.3758Z" fill="#2F2E41"/>
<path d="M23.7805 85.6401L23.384 85.0259C23.2157 84.6559 22.9054 84.3667 22.5209 84.2215C22.1365 84.0763 21.7092 84.087 21.3328 84.2513C20.9563 84.4156 20.6613 84.72 20.5125 85.098C20.3636 85.4759 20.3729 85.8965 20.5384 86.2677L20.6512 86.6657L20.7795 87.1172C21.299 87.0526 21.8115 86.9425 22.3111 86.7881C22.3125 86.7879 22.3139 86.7872 22.315 86.7862C22.6842 86.6712 23.0447 86.5305 23.3937 86.3653C23.3956 86.3633 23.3975 86.3633 23.3995 86.3614C23.4773 86.3251 23.5531 86.2868 23.6308 86.2486C23.6435 86.2429 23.6558 86.2365 23.6677 86.2294C23.7299 86.1988 23.7922 86.1663 23.8524 86.1337C23.9146 86.1012 23.9748 86.0668 24.0331 86.0304L23.7805 85.6401Z" fill="#CACACA"/>
<path d="M19.8617 82.8164C21.4391 82.8164 22.7179 81.5576 22.7179 80.0049C22.7179 78.4521 21.4391 77.1933 19.8617 77.1933C18.2843 77.1933 17.0056 78.4521 17.0056 80.0049C17.0056 81.5576 18.2843 82.8164 19.8617 82.8164Z" fill="#FFB6B6"/>
<path d="M23.9865 85.5195C23.6714 85.0038 23.2804 84.5369 22.8261 84.1343C22.5149 83.8605 22.1122 83.7093 21.6949 83.7095H17.6715C17.4397 83.7094 17.2103 83.7561 16.9975 83.8468C16.7847 83.9374 16.5931 84.07 16.4344 84.2364C16.2758 84.4028 16.1535 84.5995 16.075 84.8142C15.9966 85.029 15.9638 85.2573 15.9786 85.4851C15.9874 85.6135 16.0108 85.7406 16.0486 85.8639C16.0773 85.9533 16.113 86.0403 16.1555 86.1241L16.3537 86.5144C16.3693 86.5202 16.3849 86.5278 16.4003 86.5336C16.4042 86.5355 16.4062 86.5355 16.4081 86.5374C16.4897 86.5699 16.5714 86.6025 16.6549 86.6331C16.9285 86.736 17.2075 86.8242 17.4908 86.8971C17.9468 87.0176 18.4123 87.1002 18.8824 87.1439C19.1565 87.1688 19.4305 87.1822 19.7065 87.1822C19.9806 87.1822 20.2488 87.1688 20.517 87.1439C20.6045 87.1363 20.6919 87.1267 20.7794 87.1172C21.2989 87.0526 21.8115 86.9425 22.311 86.7881C22.3125 86.7879 22.3139 86.7872 22.3149 86.7861C22.6841 86.6711 23.0446 86.5305 23.3937 86.3652C23.3956 86.3633 23.3975 86.3633 23.3995 86.3614C23.4772 86.325 23.553 86.2868 23.6308 86.2485C23.6435 86.2429 23.6558 86.2365 23.6677 86.2294C23.7298 86.1987 23.7921 86.1662 23.8524 86.1337C23.9145 86.1012 23.9748 86.0667 24.0331 86.0304C24.0953 85.9979 24.1536 85.9615 24.2139 85.9251C24.14 85.7816 24.0642 85.6477 23.9865 85.5195Z" fill="#CACACA"/>
<path d="M18.4004 84.2224C18.028 84.0509 17.6019 84.0316 17.2151 84.1685C16.8283 84.3055 16.5123 84.5876 16.3363 84.9532L15.9786 85.4852L15.8076 85.7396L15.5471 86.1261C15.6015 86.1548 15.654 86.1835 15.7085 86.2122L15.7803 86.2486C15.9475 86.3328 16.1166 86.4131 16.2916 86.4877C16.3109 86.4973 16.3324 86.505 16.3537 86.5145C16.3693 86.5203 16.3849 86.5279 16.4003 86.5337C16.4042 86.5356 16.4062 86.5356 16.4081 86.5375C16.4897 86.57 16.5714 86.6025 16.655 86.6332C16.9285 86.7361 17.2075 86.8242 17.4908 86.8972C17.9468 87.0177 18.4123 87.1003 18.8824 87.144L19.0185 86.6906L19.1507 86.2581C19.3249 85.8902 19.3438 85.4692 19.2031 85.0875C19.0625 84.7059 18.7738 84.3947 18.4004 84.2224Z" fill="#CACACA"/>
<path d="M16.8606 78.2363C17.5133 78.6792 18.2879 78.9148 19.0806 78.9117C18.7978 79.1047 18.4759 79.2351 18.1371 79.2938C19.191 79.5164 20.2802 79.5224 21.3366 79.3115C21.5714 79.2745 21.798 79.1978 22.0064 79.0851C22.1102 79.028 22.2007 78.95 22.2719 78.8562C22.3432 78.7625 22.3936 78.655 22.4198 78.5408C22.49 78.146 22.1775 77.7874 21.8528 77.5457C21.3556 77.1812 20.7823 76.9301 20.1745 76.8106C19.5666 76.691 18.9393 76.7059 18.3381 76.8543C17.9374 76.9336 17.5729 77.1364 17.2971 77.4333C17.1637 77.5844 17.0832 77.7738 17.0674 77.9734C17.0516 78.173 17.1014 78.3723 17.2095 78.5419L16.8606 78.2363Z" fill="#2F2E41"/>
<path d="M27.8193 75.9471C27.4087 74.7855 26.7457 73.7261 25.8764 72.8427C25.0071 71.9593 23.9525 71.2733 22.7861 70.8324C21.6198 70.3915 20.3698 70.2063 19.1233 70.2899C17.8768 70.3734 16.6638 70.7236 15.5689 71.3161C14.474 71.9085 13.5236 72.729 12.784 73.7202C12.0443 74.7114 11.5332 75.8495 11.2863 77.0551C11.0394 78.2608 11.0627 79.5049 11.3545 80.7008C11.6462 81.8967 12.1995 83.0155 12.9757 83.9793C13.0514 84.0749 13.1331 84.1706 13.2148 84.2624C13.2194 84.2692 13.2246 84.2756 13.2303 84.2816C13.4316 84.5094 13.6457 84.726 13.8717 84.9302C13.93 84.9838 13.9902 85.0393 14.0525 85.0909C14.169 85.1942 14.2896 85.2918 14.4159 85.3856C14.4645 85.4238 14.5131 85.4621 14.5637 85.4985C14.7599 85.6458 14.966 85.7816 15.1759 85.9136C15.1795 85.9137 15.1829 85.9151 15.1856 85.9175C15.2458 85.9538 15.3081 85.9902 15.3703 86.0246C15.4285 86.0591 15.4888 86.0935 15.5472 86.126C15.6015 86.1547 15.654 86.1834 15.7085 86.2121L15.7803 86.2485C15.9476 86.3327 16.1166 86.413 16.2916 86.4876C16.311 86.4972 16.3324 86.5049 16.3538 86.5144C16.3693 86.5202 16.3849 86.5278 16.4004 86.5336C16.4042 86.5355 16.4062 86.5355 16.4081 86.5374C16.4897 86.5699 16.5715 86.6024 16.655 86.6331C16.9285 86.736 17.2075 86.8241 17.4908 86.8971C17.9468 87.0176 18.4123 87.1002 18.8824 87.1439C19.1565 87.1688 19.4306 87.1822 19.7066 87.1822C19.9806 87.1822 20.2488 87.1688 20.517 87.1439C20.6045 87.1363 20.692 87.1267 20.7795 87.1171C21.2989 87.0526 21.8115 86.9424 22.311 86.788C22.3125 86.7879 22.3139 86.7872 22.3149 86.7861C22.6842 86.6711 23.0447 86.5304 23.3937 86.3652C23.3956 86.3633 23.3975 86.3633 23.3995 86.3614C23.4772 86.325 23.553 86.2867 23.6308 86.2485C23.6435 86.2429 23.6558 86.2365 23.6677 86.2293C23.7299 86.1987 23.7921 86.1662 23.8524 86.1337C23.9145 86.1011 23.9748 86.0667 24.0331 86.0304C24.0953 85.9978 24.1536 85.9615 24.2139 85.9251C24.245 85.906 24.2761 85.8869 24.3072 85.8677C24.35 85.8429 24.3888 85.818 24.4316 85.7893C24.4899 85.7529 24.5482 85.7127 24.6045 85.6726C24.6803 85.6209 24.7562 85.5673 24.83 85.5118C24.8549 85.4959 24.8789 85.4786 24.9019 85.4602C26.3453 84.3801 27.4048 82.8783 27.9288 81.1697C28.4528 79.461 28.4145 77.633 27.8193 75.9471ZM24.6182 85.0909C24.5676 85.1311 24.5151 85.1694 24.4627 85.2038C24.4102 85.2421 24.3597 85.2784 24.3072 85.3129C24.2625 85.3435 24.2178 85.3741 24.1712 85.4028C24.167 85.4064 24.1624 85.4096 24.1575 85.4124C24.1245 85.4353 24.0895 85.4564 24.0564 85.4774C24.0331 85.4908 24.0098 85.5061 23.9865 85.5195C23.9185 85.5616 23.8504 85.6018 23.7805 85.6401C23.7435 85.663 23.7046 85.6841 23.6677 85.7051C23.6541 85.7128 23.6405 85.7204 23.6269 85.7281C23.5666 85.7606 23.5084 85.7893 23.45 85.8199C23.4423 85.8256 23.4325 85.8275 23.4267 85.8333C23.4231 85.8334 23.4197 85.8347 23.417 85.8371C23.3431 85.8754 23.2673 85.9117 23.1916 85.9462C22.8997 86.0844 22.5991 86.2039 22.2916 86.304C22.2528 86.3174 22.212 86.3327 22.1731 86.3442C21.6774 86.4989 21.1677 86.6066 20.6511 86.6656C20.5929 86.6732 20.5326 86.679 20.4724 86.6847C20.2197 86.7077 19.9651 86.7192 19.7066 86.7192C19.4772 86.7192 19.2459 86.7096 19.0185 86.6905C18.5431 86.6515 18.0722 86.5708 17.6113 86.4494C17.2606 86.3594 16.9169 86.2443 16.5831 86.105C16.5656 86.0973 16.5481 86.0916 16.5307 86.0839C16.5112 86.0763 16.4956 86.0705 16.4782 86.0629C16.4587 86.0552 16.4432 86.0476 16.4237 86.038C16.2974 85.9844 16.1711 85.9251 16.0486 85.8639C16.0311 85.8543 16.0136 85.8467 15.9962 85.8371L15.9281 85.8027C15.8873 85.7816 15.8465 85.7606 15.8076 85.7395C15.6774 85.6707 15.5491 85.596 15.4247 85.5195C15.3781 85.4908 15.3276 85.4602 15.2809 85.4296L15.2459 85.4066C15.137 85.3339 15.0282 85.2612 14.9213 85.1828C14.8493 85.1292 14.7755 85.0775 14.7056 85.022C14.587 84.934 14.4723 84.8403 14.3615 84.7427C14.3032 84.6949 14.2449 84.6413 14.1905 84.5915C13.9716 84.393 13.7646 84.1822 13.5705 83.9601C13.5063 83.8874 13.4422 83.8147 13.3819 83.7382C13.3683 83.7229 13.3567 83.7076 13.343 83.6904C12.341 82.4458 11.7382 80.9357 11.6116 79.3526C11.485 77.7695 11.8402 76.1851 12.632 74.8015C13.4239 73.418 14.6164 72.2979 16.0575 71.5843C17.4986 70.8706 19.1229 70.5956 20.7234 70.7944C22.3239 70.9932 23.828 71.6568 25.0438 72.7005C26.2597 73.7442 27.1321 75.1208 27.55 76.6546C27.9679 78.1884 27.9122 79.81 27.39 81.3125C26.8678 82.8151 25.9029 84.1304 24.6182 85.0909Z" fill="#3F3D56"/>
<path d="M34.0767 34.6358C31.0858 32.1514 27.4259 30.5763 23.5422 30.1022C19.6586 29.6282 15.7187 30.2755 12.2019 31.9655C8.68518 33.6554 5.74325 36.3152 3.73411 39.6211C1.72496 42.927 0.735237 46.7364 0.885362 50.5859C1.03549 54.4354 2.31899 58.159 4.57969 61.3035C6.84039 64.4481 9.98081 66.878 13.6188 68.2975C17.2568 69.7171 21.2355 70.0652 25.0708 69.2994C28.9061 68.5336 32.4326 66.687 35.2212 63.9842L59.9835 84.5525C60.3605 84.8644 60.8477 85.0165 61.3384 84.9753C61.829 84.9342 62.2831 84.7032 62.6011 84.333C62.919 83.9628 63.0749 83.4836 63.0345 83.0004C62.9941 82.5173 62.7607 82.0697 62.3856 81.7556L62.3828 81.7533L37.6206 61.185C40.4972 57.1209 41.7283 52.1458 41.0728 47.2347C40.4172 42.3235 37.9222 37.8304 34.0767 34.6358ZM32.4804 59.2044C30.5513 61.455 27.9876 63.0919 25.1134 63.9081C22.2393 64.7243 19.1838 64.6833 16.3334 63.7901C13.483 62.8969 10.9657 61.1917 9.09974 58.8901C7.23381 56.5885 6.10309 53.794 5.85057 50.8598C5.59805 47.9256 6.23507 44.9837 7.68108 42.4059C9.12708 39.8281 11.3171 37.7303 13.9743 36.3778C16.6314 35.0253 19.6363 34.4788 22.609 34.8074C25.5816 35.136 28.3885 36.325 30.6747 38.224C33.7405 40.7705 35.653 44.4115 35.9916 48.3461C36.3302 52.2807 35.0672 56.1866 32.4804 59.2044Z" fill="#3F3D56"/>
<path opacity="0.3" d="M11.1674 60.9819C8.26596 58.5716 6.39138 55.1753 5.91593 51.4674C5.44047 47.7595 6.39891 44.0112 8.60094 40.9668C8.31176 41.2535 8.03219 41.5537 7.76225 41.8675C6.48138 43.3618 5.51205 45.0899 4.90959 46.9529C4.30713 48.816 4.08334 50.7777 4.25101 52.7259C4.41868 54.6741 4.97451 56.5707 5.88678 58.3075C6.79905 60.0442 8.04988 61.5871 9.56787 62.848C11.0859 64.1088 12.8413 65.0631 14.7339 65.6561C16.6265 66.2492 18.6192 66.4695 20.5983 66.3044C22.5774 66.1394 24.5041 65.5922 26.2683 64.6942C28.0326 63.7961 29.5999 62.5648 30.8808 61.0705C31.1501 60.7563 31.4038 60.4345 31.6417 60.1052C28.9635 62.7541 25.3713 64.3147 21.5784 64.4771C17.7854 64.6396 14.0691 63.3919 11.1674 60.9819Z" fill="black"/>
<path d="M83.9974 85.3215C84.1908 85.089 84.3301 84.8176 84.4055 84.5265C84.4808 84.2353 84.4904 83.9314 84.4335 83.6361C84.3767 83.3409 84.2548 83.0615 84.0763 82.8177C83.8979 82.5739 83.6674 82.3715 83.4009 82.2249L78.8874 64.0388L75.5947 65.0735L80.4686 83.1355C80.248 83.5924 80.2054 84.1132 80.3488 84.599C80.4922 85.0848 80.8117 85.502 81.2466 85.7714C81.6816 86.0409 82.2019 86.1439 82.7089 86.061C83.2158 85.9781 83.6743 85.7149 83.9974 85.3215Z" fill="#FFB6B6"/>
<path d="M81.6645 73.6888L79.2582 75.7323L75.8918 78.5891L74.4049 71.1003L74.2494 70.3215L74.127 69.7035L77.5381 63.8545L80.3817 64.015L80.576 64.0265L80.5799 64.0688L80.6246 64.461L81.2077 69.623L81.2213 69.7475L81.6645 73.6888Z" fill="#3F3D56"/>
<path d="M65.9366 124.521L63.5538 124.521L62.4201 115.473L65.9372 115.474L65.9366 124.521Z" fill="#FFB6B6"/>
<path d="M66.5443 126.795L58.8609 126.795V126.699C58.861 125.918 59.1761 125.17 59.7369 124.618C60.2978 124.065 61.0584 123.755 61.8515 123.755H61.8517L66.5445 123.755L66.5443 126.795Z" fill="#2F2E41"/>
<path d="M90.8154 124.713L88.4327 124.712L87.299 115.665L90.816 115.665L90.8154 124.713Z" fill="#FFB6B6"/>
<path d="M91.4232 126.986L83.7398 126.986V126.89C83.7398 126.11 84.055 125.361 84.6158 124.809C85.1766 124.257 85.9373 123.947 86.7304 123.947H86.7306L91.4234 123.947L91.4232 126.986Z" fill="#2F2E41"/>
<path d="M92.7201 121.111L86.306 122.068L76.9745 90.9797L67.0638 122.259L59.8722 121.302L69.2018 84.9488V82.0788L70.4652 77.7738L70.333 76.6086L69.4136 68.4597L69.0152 64.9258L68.9894 64.6975C68.9677 64.5059 69.0193 64.3132 69.134 64.157C69.2487 64.0008 69.4184 63.8922 69.61 63.8524L72.6032 63.2325H77.4954L80.3817 64.015L80.58 64.0686L80.6694 64.0935L80.6247 64.4608L79.9483 70.044L79.9114 70.3501L79.2583 75.7323L79.1145 76.9128C84.7511 80.9308 84.9454 84.9488 84.9454 84.9488L92.7201 121.111Z" fill="#2F2E41"/>
<path d="M74.458 60.8119C77.0945 60.8119 79.2318 58.7079 79.2318 56.1126C79.2318 53.5172 77.0945 51.4132 74.458 51.4132C71.8215 51.4132 69.6842 53.5172 69.6842 56.1126C69.6842 58.7079 71.8215 60.8119 74.458 60.8119Z" fill="#FFB6B6"/>
<path d="M79.472 75.833L70.0285 77.0487L70.2049 78.3767L79.6485 77.161L79.472 75.833Z" fill="#3F3D56"/>
<path d="M57.3614 77.4491C57.4517 77.5066 57.5373 77.571 57.6173 77.6418L66.9578 75.2978L67.595 73.0796L71.1214 73.5887L70.381 77.6235C70.3212 77.9495 70.1556 78.2476 69.9091 78.473C69.6625 78.6984 69.3484 78.839 69.0137 78.8737L58.1076 80.0043C57.9299 80.3727 57.6424 80.6791 57.2834 80.8828C56.9244 81.0864 56.511 81.1777 56.098 81.1444C55.6851 81.1111 55.2923 80.9548 54.9717 80.6964C54.6512 80.4379 54.4183 80.0895 54.3038 79.6975C54.1893 79.3056 54.1988 78.8885 54.3309 78.502C54.4631 78.1154 54.7117 77.7777 55.0436 77.5336C55.3755 77.2895 55.7751 77.1507 56.1891 77.1356C56.6032 77.1205 57.0121 77.2298 57.3614 77.4491Z" fill="#FFB6B6"/>
<path d="M71.7285 65.0503L70.0764 63.8066C69.6297 63.6398 69.0176 64.1137 68.9102 64.5719L66.5778 73.9473L71.437 77.3913L72.1172 76.339L71.7285 65.0503Z" fill="#3F3D56"/>
<g opacity="0.2">
<path d="M81.2077 69.623C80.7954 69.7841 80.375 69.9246 79.9482 70.0439C79.8122 70.0841 79.6723 70.1224 79.5343 70.1587C78.6246 70.4072 77.6898 70.5561 76.747 70.6026C76.3412 70.6195 75.9346 70.6087 75.5303 70.5701C75.0963 70.5275 74.6674 70.4442 74.2495 70.3214C74.2358 70.3176 74.2202 70.3137 74.2067 70.3099C73.3376 70.067 72.5408 69.6213 71.884 69.0107C71.7372 68.8701 71.6002 68.7198 71.4739 68.5611C71.1109 68.1235 70.8447 67.6163 70.6921 67.0717C70.5394 66.5271 70.5039 65.9572 70.5876 65.3984C70.6038 65.2971 70.6259 65.1968 70.6537 65.098C70.7269 64.8287 70.8238 64.5662 70.9433 64.3135C70.9957 64.1949 71.0541 64.0782 71.1163 63.9634L73.3126 63.2325H77.4953L80.3817 64.015L80.576 64.0265L80.5799 64.0686L80.6693 64.0935L80.6246 64.4608L81.2077 69.623Z" fill="black"/>
</g>
<path d="M70.8 52.222C69.9073 52.1142 68.9275 52.1904 68.2317 52.7515C67.5358 53.3125 67.3112 54.4788 67.9701 55.0816C68.5533 55.6152 69.4654 55.4897 70.2466 55.6415C70.9196 55.79 71.5225 56.1564 71.9589 56.6822C72.3953 57.2079 72.6399 57.8626 72.6536 58.5414C72.6419 60.4881 70.7441 61.9623 70.4032 63.8798C70.1705 65.1885 70.7312 66.5658 71.7006 67.4902C72.6699 68.4146 74.0025 68.9142 75.3451 69.0495C76.6877 69.1849 78.0453 68.9782 79.3502 68.6386C80.6604 68.2976 81.9503 67.8139 83.0498 67.0337C84.1492 66.2536 85.0504 65.1538 85.4034 63.8657C85.7564 62.5776 85.503 61.1007 84.5933 60.1117C83.5517 58.9792 81.8189 58.5898 80.9179 57.3459C79.9079 55.9515 80.2816 53.9657 79.4642 52.454C78.9184 51.4447 77.8851 50.7563 76.7835 50.3936C75.682 50.0309 74.5057 49.9594 73.3448 49.9242C72.7345 49.9058 72.1056 49.8996 71.5371 50.1186C70.9686 50.3376 70.4688 50.8367 70.4393 51.437C70.4099 52.0373 70.8 52.222 70.8 52.222Z" fill="#2F2E41"/>
<path d="M115.492 127.064H41.4389C41.3873 127.064 41.3379 127.044 41.3014 127.008C41.265 126.972 41.2445 126.923 41.2445 126.872C41.2445 126.822 41.265 126.773 41.3014 126.737C41.3379 126.701 41.3873 126.681 41.4389 126.681H115.492C115.544 126.681 115.593 126.701 115.63 126.737C115.666 126.773 115.687 126.822 115.687 126.872C115.687 126.923 115.666 126.972 115.63 127.008C115.593 127.044 115.544 127.064 115.492 127.064Z" fill="#CACACA"/>
</svg>
